<svg width="86" height="18" viewBox="0 0 86 18" fill="none" xmlns="http://www.w3.org/2000/svg">
<path d="M8.03332 14.5652V17.0207C7.54821 17.1725 6.98635 17.2499 6.3492 17.2499C5.01406 17.2499 4.04239 16.955 3.43564 16.3666C2.82889 15.7783 2.52479 14.8104 2.52479 13.4645V7.8192H0.658203V5.4338H2.52479V2.4046H5.71059V5.4338H7.91747V7.8192H5.71059V12.8893C5.71059 13.5316 5.82498 13.99 6.05233 14.2659C6.27968 14.5418 6.66633 14.6791 7.2137 14.6791C7.53373 14.6791 7.80597 14.6411 8.03332 14.5652Z" fill="black"/>
<path d="M16.3837 14.7416C16.7935 14.4437 17.0354 14.0496 17.1121 13.5605H20.366C20.2139 14.2802 19.891 14.9372 19.3987 15.5343C18.9049 16.1313 18.2677 16.6014 17.4872 16.9459C16.7052 17.2905 15.8219 17.4627 14.8357 17.4627C13.6367 17.4627 12.6057 17.1985 11.7412 16.6715C10.8767 16.1445 10.2163 15.4058 9.76162 14.4569C9.30692 13.5094 9.07812 12.4145 9.07812 11.1766C9.07812 10.0145 9.30548 8.97367 9.76162 8.05688C10.2178 7.1401 10.8767 6.41309 11.7412 5.87732C12.6057 5.34156 13.6295 5.0744 14.814 5.0744C16.1332 5.0744 17.2642 5.42185 18.2054 6.1182C19.1467 6.81455 19.7983 7.75907 20.1632 8.95177C20.4051 9.73134 20.5267 10.7255 20.5267 11.9343H12.2205C12.2654 13.0656 12.5275 13.8934 13.0053 14.4116C13.4832 14.9313 14.0943 15.1912 14.8372 15.1912C15.4584 15.1897 15.9739 15.0408 16.3837 14.7416ZM13.1415 7.98535C12.694 8.41309 12.4087 9.05542 12.2885 9.91236H17.3409C17.2497 9.07148 16.9731 8.43207 16.5097 7.99703C16.0463 7.56053 15.4816 7.34302 14.814 7.34302C14.145 7.34302 13.5875 7.55761 13.1415 7.98535Z" fill="black"/>
<path d="M31.1119 6.22479C31.946 6.99705 32.363 8.14888 32.363 9.67734V13.8992C32.363 15.2146 32.4687 16.2773 32.6816 17.0876H29.8144C29.7087 16.6438 29.6551 16.1241 29.6551 15.527H29.6102C28.7602 16.7503 27.509 17.362 25.8553 17.362C24.6563 17.362 23.7006 17.0292 22.9881 16.3635C22.2742 15.6978 21.918 14.8525 21.918 13.8277C21.918 12.8335 22.2626 12.0306 22.9534 11.4189C23.6441 10.8073 24.7924 10.3722 26.4013 10.1109C27.3715 9.95764 28.3359 9.85107 29.2916 9.78975V9.37661C29.2916 8.67296 29.1237 8.15326 28.7906 7.81603C28.4561 7.48026 27.9942 7.31092 27.4019 7.31092C26.8096 7.31092 26.3506 7.46858 26.0248 7.78099C25.6989 8.09486 25.5208 8.52698 25.4904 9.07734H22.3958C22.4567 7.9007 22.9114 6.93574 23.7614 6.18683C24.61 5.43793 25.8249 5.06274 27.4033 5.06274C29.0411 5.06566 30.2778 5.45253 31.1119 6.22479ZM26.9704 11.9941C26.3028 12.1168 25.8249 12.3007 25.5368 12.5445C25.2486 12.7898 25.1038 13.1401 25.1038 13.6C25.1038 14.0438 25.2515 14.4 25.5483 14.6671C25.8437 14.9357 26.2651 15.0686 26.8111 15.0686C27.1601 15.0686 27.4975 15.0117 27.8233 14.8963C28.1491 14.781 28.4184 14.6175 28.6313 14.4029C28.8891 14.143 29.0643 13.8481 29.1541 13.5197C29.2453 13.1912 29.2902 12.743 29.2902 12.1781V11.7416C28.3808 11.8044 27.6075 11.8876 26.9704 11.9941Z" fill="black"/>
<path d="M43.1145 5.6642C43.9109 6.06274 44.5481 6.62041 45.0259 7.33866C45.5038 8.05837 45.7804 8.86858 45.8571 9.77077H42.5338C42.473 9.08172 42.2485 8.54012 41.8619 8.14158C41.4752 7.7445 40.9785 7.5445 40.3718 7.5445C39.5985 7.5445 38.9918 7.87734 38.5515 8.54304C38.1113 9.20873 37.8912 10.1153 37.8912 11.2613C37.8912 12.4073 38.1113 13.3153 38.5515 13.9795C38.9918 14.6452 39.5985 14.9766 40.3718 14.9766C40.9785 14.9766 41.4752 14.7591 41.8619 14.3226C42.2485 13.8861 42.4643 13.2861 42.5106 12.5211H45.8557C45.7341 14.0058 45.1809 15.1985 44.1947 16.1007C43.2086 17.0029 41.9415 17.454 40.3935 17.454C39.2249 17.454 38.2011 17.1971 37.3207 16.6846C36.4402 16.1722 35.7625 15.4496 35.2832 14.5168C34.8053 13.5839 34.5664 12.4978 34.5664 11.2584C34.5664 10.0189 34.8053 8.93428 35.2832 7.99997C35.7611 7.06712 36.4402 6.3445 37.3207 5.83209C38.2011 5.31968 39.2249 5.06274 40.3935 5.06274C41.4115 5.06712 42.318 5.26712 43.1145 5.6642Z" fill="black"/>
<path d="M51.3425 6.71954C51.7364 6.19983 52.2114 5.81005 52.7645 5.5502C53.3177 5.29034 53.9056 5.16042 54.5283 5.16042C55.8475 5.16042 56.8873 5.56918 57.6461 6.38815C58.4049 7.20713 58.7842 8.38815 58.7842 9.93268V17.0903H55.5985V10.2538C55.5985 9.39691 55.4203 8.75458 55.0641 8.32684C54.7079 7.8991 54.2112 7.68451 53.574 7.68451C52.892 7.68451 52.3417 7.95604 51.9247 8.4991C51.5076 9.04217 51.2991 9.82611 51.2991 10.8509V17.0918H48.1133V0.754578H51.2991V6.71954H51.3425Z" fill="black"/>
<path d="M60.9004 11.6546V9.13055H66.8173V11.6546H60.9004Z" fill="black"/>
<path d="M69.0469 3.50786V0.754578H72.2327V3.50786H69.0469ZM69.0469 17.0889V5.43487H72.2327V17.0889H69.0469Z" fill="black"/>
<path d="M84.8628 6.38345C85.6216 7.20243 86.001 8.38345 86.001 9.92797V17.0856H82.8153V10.2491C82.8153 9.39221 82.6371 8.74987 82.2809 8.32213C81.9247 7.8944 81.428 7.6798 80.7908 7.6798C80.1088 7.6798 79.5585 7.95133 79.1414 8.4944C78.7244 9.03746 78.5159 9.8214 78.5159 10.8462V17.0871H75.3301V5.43162H78.3117V6.90023H78.3566C78.7505 6.36447 79.2356 5.94111 79.8134 5.62724C80.3897 5.31337 81.0341 5.15717 81.748 5.15717C83.0658 5.15571 84.104 5.56593 84.8628 6.38345Z" fill="black"/>
</svg>
