<svg width="42" height="42" viewBox="0 0 42 42" fill="none" xmlns="http://www.w3.org/2000/svg">
<path d="M22.6626 34.9474C16.6559 34.9474 12.7055 31.4321 12.7055 25.7139V20.4613H8.68274V14.1095H12.7055V11.9606H18.9656V14.1095H34.7686V20.4613H18.9656V25.4584C18.9656 27.5343 20.2689 28.635 22.1167 28.635H40.2351C41.1532 26.2672 41.6615 23.6934 41.6615 20.9985C41.663 9.40292 32.3358 0 20.8308 0C9.32569 0 0 9.40292 0 21C0 32.5971 9.32714 42 20.8308 42C27.0242 42 32.5834 39.2715 36.3992 34.946H22.6626V34.9474Z" fill="black"/>
</svg>
