<svg width="66" height="9" viewBox="0 0 66 9" fill="none" xmlns="http://www.w3.org/2000/svg">
<path d="M3.68593 6.62249V5.03042C3.68593 4.41336 3.69382 3.7963 3.7096 3.17925H3.69382C3.46838 3.60653 3.15163 4.17813 2.74357 4.89291L1.73696 6.62249H0.658203V2.49741H1.38301V4.08835C1.38301 4.70541 1.37512 5.32247 1.35934 5.93952H1.37512C1.61634 5.46338 1.93309 4.89178 2.32537 4.22585L3.33198 2.49628H4.41074V6.62135H3.68593V6.62249Z" fill="black"/>
<path d="M8.44658 6.62135V4.83496H6.377V6.62135H5.66797V2.49628H6.377V4.26676H8.44658V2.49628H9.15561V6.62135H8.44658Z" fill="black"/>
<path d="M11.8623 3.06447V6.62135H11.1375V3.06447H9.73633V2.49628L13.2555 2.50423V3.06447H11.8623Z" fill="black"/>
<path d="M16.135 5.96289C16.3255 5.8163 16.445 5.62425 16.4935 5.38674H17.2183C17.1427 5.77084 16.9489 6.09244 16.6344 6.34926C16.3199 6.60609 15.9129 6.7345 15.4136 6.7345C15.0157 6.7345 14.673 6.64245 14.3822 6.45835C14.0925 6.27426 13.8704 6.01403 13.7182 5.67879C13.5649 5.34356 13.4883 4.95037 13.4883 4.5015C13.4883 4.09581 13.5649 3.73103 13.7182 3.40943C13.8715 3.08784 14.0913 2.83556 14.3788 2.65374C14.6662 2.47305 15.0033 2.38214 15.3899 2.38214C15.8464 2.38214 16.2319 2.50942 16.5453 2.76397C16.8598 3.01852 17.0706 3.3708 17.1777 3.81967C17.2318 4.04126 17.2577 4.33672 17.2577 4.70491H14.1973C14.2131 5.19242 14.3326 5.56061 14.5558 5.80948C14.779 6.05835 15.0641 6.18335 15.4136 6.18335C15.7044 6.18221 15.9445 6.10948 16.135 5.96289ZM14.5772 3.25488C14.3675 3.46852 14.2446 3.7708 14.2063 4.16058H16.5577C16.5205 3.76512 16.3965 3.46284 16.1869 3.25148C15.9772 3.04011 15.7112 2.93442 15.3899 2.93442C15.0574 2.93442 14.7857 3.04124 14.5772 3.25488Z" fill="black"/>
<path d="M21.087 2.65641C21.3474 2.83255 21.5469 3.08369 21.6867 3.4121C21.8265 3.73938 21.8964 4.12007 21.8964 4.55303C21.8964 4.986 21.8265 5.36669 21.6867 5.69397C21.5469 6.02124 21.3485 6.27466 21.0904 6.45307C20.8323 6.63148 20.5313 6.72126 20.1886 6.72126C19.9147 6.72126 19.6667 6.65989 19.4435 6.5383C19.2203 6.41671 19.0535 6.24966 18.9396 6.03943H18.9239V8.12583H18.2148V2.49845H18.916V3.09164H18.9318C19.0388 2.87573 19.2057 2.70527 19.4311 2.58027C19.6566 2.4564 19.9068 2.3939 20.1807 2.3939C20.5234 2.39163 20.8255 2.48027 21.087 2.65641ZM19.1933 3.39506C18.9915 3.67915 18.8912 4.06439 18.8912 4.5519C18.8912 5.03941 18.9915 5.42578 19.1933 5.71328C19.395 5.99965 19.6645 6.14397 20.0026 6.14397C20.3521 6.14397 20.6305 5.99965 20.8402 5.70987C21.0498 5.4201 21.1547 5.03486 21.1547 4.55303C21.1547 4.07121 21.0498 3.68711 20.8402 3.3996C20.6305 3.11323 20.3509 2.96891 20.0026 2.96891C19.6645 2.96891 19.395 3.11096 19.1933 3.39506Z" fill="black"/>
<path d="M26.6741 2.38967C27.001 2.38967 27.2907 2.4783 27.5399 2.65331C27.7901 2.82945 27.9817 3.08059 28.1159 3.409C28.25 3.73628 28.3176 4.11697 28.3176 4.54994C28.3176 4.9829 28.25 5.36359 28.1159 5.69087C27.9817 6.01814 27.7901 6.27156 27.5399 6.44997C27.2907 6.62838 26.9988 6.71816 26.6663 6.71816C26.3551 6.71816 26.0756 6.61588 25.8287 6.4102V8.12387H25.1197V6.4102C24.883 6.61588 24.6068 6.71816 24.2901 6.71816C23.9575 6.71816 23.6656 6.62838 23.4165 6.44997C23.1673 6.27156 22.9746 6.01814 22.8404 5.69087C22.7063 5.36359 22.6387 4.9829 22.6387 4.54994C22.6387 4.11697 22.7063 3.73628 22.8404 3.409C22.9746 3.08172 23.1662 2.82945 23.4165 2.65331C23.6667 2.47717 23.9553 2.38967 24.2822 2.38967C24.5989 2.38967 24.8785 2.49762 25.1197 2.71467V0.838501H25.8287V2.71467C26.0745 2.49876 26.3574 2.38967 26.6741 2.38967ZM23.6735 3.3965C23.4773 3.68287 23.3793 4.06811 23.3793 4.54994C23.3793 5.03176 23.4773 5.417 23.6735 5.70677C23.8696 5.99655 24.1311 6.14087 24.4591 6.14087C24.7173 6.14087 24.9371 6.04314 25.1197 5.84882V3.26696C24.9371 3.06695 24.7173 2.96695 24.4591 2.96695C24.1311 2.96695 23.8696 3.11013 23.6735 3.3965ZM25.8276 3.26696V5.84882C26.0215 6.04314 26.2413 6.14087 26.4882 6.14087C26.815 6.14087 27.0788 5.99655 27.2772 5.70677C27.4756 5.417 27.5748 5.03176 27.5748 4.54994C27.5748 4.06811 27.4767 3.68401 27.2806 3.3965C27.0845 3.11013 26.8196 2.96581 26.487 2.96581C26.2357 2.96695 26.0158 3.06695 25.8276 3.26696Z" fill="black"/>
<path d="M31.7034 5.96289C31.8939 5.8163 32.0134 5.62425 32.0618 5.38674H32.7866C32.7111 5.77084 32.5172 6.09244 32.2027 6.34926C31.8882 6.60609 31.4813 6.7345 30.9819 6.7345C30.584 6.7345 30.2414 6.64245 29.9505 6.45835C29.6608 6.27426 29.4388 6.01403 29.2866 5.67879C29.1333 5.34356 29.0566 4.95037 29.0566 4.5015C29.0566 4.09581 29.1333 3.73103 29.2866 3.40943C29.4399 3.08784 29.6597 2.83556 29.9472 2.65374C30.2346 2.47305 30.5716 2.38214 30.9583 2.38214C31.4148 2.38214 31.8003 2.50942 32.1137 2.76397C32.4282 3.01852 32.639 3.3708 32.7461 3.81967C32.8002 4.04126 32.8261 4.33672 32.8261 4.70491H29.7657C29.7815 5.19242 29.9009 5.56061 30.1241 5.80948C30.3473 6.05835 30.6325 6.18335 30.9819 6.18335C31.2716 6.18221 31.5129 6.10948 31.7034 5.96289ZM30.1444 3.25488C29.9348 3.46852 29.8119 3.7708 29.7736 4.16058H32.125C32.0878 3.76512 31.9638 3.46284 31.7541 3.25148C31.5444 3.04011 31.2784 2.93442 30.9571 2.93442C30.6246 2.93442 30.3541 3.04124 30.1444 3.25488Z" fill="black"/>
<path d="M36.8121 6.62043V5.02835C36.8121 4.4113 36.82 3.79424 36.8357 3.17718H36.82C36.5945 3.60446 36.2778 4.17606 35.8697 4.89085L34.8631 6.62043H33.7832V2.49535H34.508V4.08629C34.508 4.70335 34.5001 5.3204 34.4843 5.93746H34.5001C34.7414 5.46132 35.0581 4.88971 35.4504 4.22379L36.457 2.49421H37.5357V6.61929H36.8121V6.62043ZM36.5506 1.69533C36.333 1.89875 36.0388 1.99989 35.6691 1.99989C35.2982 1.99989 35.0029 1.89875 34.7831 1.69533C34.5632 1.49192 34.4393 1.20669 34.4122 0.838501H34.9443C34.9657 1.04987 35.0412 1.21237 35.1697 1.32601C35.2982 1.43965 35.465 1.49647 35.6691 1.49647C35.8731 1.49647 36.0377 1.43965 36.1639 1.32601C36.2902 1.21237 36.3668 1.04987 36.3939 0.838501H36.9169C36.8898 1.20783 36.7681 1.49306 36.5506 1.69533Z" fill="black"/>
<path d="M41.2879 2.58215C41.5427 2.7151 41.7467 2.90033 41.9 3.13784C42.0533 3.37648 42.1424 3.64921 42.1694 3.95831H41.4288C41.4018 3.66626 41.2958 3.42762 41.111 3.24352C40.9261 3.05943 40.6939 2.96738 40.4143 2.96738C40.0547 2.96738 39.7696 3.10943 39.561 3.39352C39.3514 3.67762 39.2465 4.06626 39.2465 4.55832C39.2465 5.05151 39.3502 5.43902 39.5565 5.72311C39.7628 6.00721 40.0491 6.14926 40.4143 6.14926C40.6939 6.14926 40.9261 6.05039 41.111 5.85266C41.2958 5.65493 41.4018 5.40493 41.4288 5.10151H42.1694C42.1424 5.41515 42.0544 5.69584 41.9034 5.94244C41.7535 6.18903 41.5506 6.38222 41.2958 6.52313C41.0411 6.66404 40.7491 6.7345 40.4222 6.7345C40.0299 6.7345 39.6895 6.64586 39.3998 6.47086C39.1101 6.29472 38.8869 6.04357 38.7314 5.71516C38.5758 5.38788 38.498 5.00151 38.498 4.55832C38.498 4.11399 38.5758 3.72876 38.7314 3.40148C38.8869 3.0742 39.1101 2.82192 39.3998 2.64578C39.6895 2.46964 40.0311 2.38214 40.4222 2.38214C40.7446 2.38328 41.0332 2.45033 41.2879 2.58215Z" fill="black"/>
<path d="M47.7278 6.62135V4.83496H45.6582V6.62135H44.9492V2.49628H45.6582V4.26676H47.7278V2.49628H48.4369V6.62135H47.7278Z" fill="black"/>
<path d="M52.3374 2.78442C52.6192 3.05261 52.7601 3.45148 52.7601 3.98217V5.56516C52.7601 5.98221 52.7928 6.33335 52.8571 6.62086H52.2123C52.1751 6.44813 52.156 6.24699 52.156 6.01971H52.1402C51.9948 6.2413 51.8043 6.41176 51.5687 6.53108C51.332 6.6504 51.0501 6.7095 50.7232 6.7095C50.305 6.7095 49.9691 6.59699 49.7166 6.37313C49.4641 6.14812 49.3379 5.85721 49.3379 5.50038C49.3379 5.14356 49.4551 4.8606 49.6885 4.6515C49.9218 4.44354 50.3231 4.29354 50.8923 4.20036C51.2902 4.13558 51.6848 4.09013 52.0759 4.06285V3.90035C52.0759 3.56966 51.9936 3.32648 51.8302 3.16966C51.6667 3.01283 51.439 2.93442 51.1493 2.93442C50.8596 2.93442 50.6342 3.00943 50.473 3.15829C50.3118 3.30716 50.2261 3.50603 50.2149 3.75489H49.5058C49.5273 3.34921 49.6806 3.01852 49.9646 2.76397C50.2487 2.50942 50.6443 2.38214 51.1482 2.38214C51.6588 2.38214 52.0556 2.51623 52.3374 2.78442ZM51.0039 4.73673C50.6601 4.79128 50.4178 4.87196 50.2746 4.97992C50.1326 5.08787 50.0616 5.2447 50.0616 5.45038C50.0616 5.66629 50.1348 5.83902 50.2825 5.9663C50.4302 6.09357 50.6353 6.15721 50.8991 6.15721C51.0659 6.15721 51.2226 6.1288 51.3703 6.07198C51.5179 6.01516 51.6431 5.93562 51.7445 5.83221C51.8674 5.70266 51.9542 5.56856 52.0026 5.42993C52.0511 5.29242 52.0748 5.10151 52.0748 4.85719V4.60605C51.6622 4.64014 51.3049 4.68332 51.0039 4.73673Z" fill="black"/>
<path d="M54.995 7.63274C54.8473 7.82479 54.6748 7.96002 54.4798 8.03843C54.2837 8.11684 54.0357 8.15661 53.7347 8.15661C53.5735 8.15661 53.4495 8.14297 53.3639 8.1157V7.51455C53.4608 7.54751 53.5735 7.56342 53.702 7.56342C53.8847 7.56342 54.0335 7.53614 54.1484 7.4816C54.2634 7.42705 54.3649 7.33614 54.4505 7.20546C54.5362 7.07591 54.6252 6.88613 54.7166 6.63726L53.1621 2.49628H53.9275L55.1032 5.77702H55.119L56.3105 2.49628H57.0601L55.4166 6.80772C55.2835 7.16568 55.1426 7.44069 54.995 7.63274Z" fill="black"/>
<path d="M60.18 6.62135L58.3674 4.55882H58.3516V6.62135H57.6426V2.49628H58.3516V4.20995H58.3674L60.0188 2.49628H60.8969L59.0606 4.36336L61.1144 6.62022H60.18V6.62135Z" fill="black"/>
<path d="M64.8101 6.62249V5.03042C64.8101 4.41336 64.818 3.7963 64.8338 3.17925H64.818C64.5926 3.60653 64.2758 4.17813 63.8677 4.89291L62.8611 6.62249H61.7812V2.49741H62.5061V4.08835C62.5061 4.70541 62.4982 5.32247 62.4824 5.93952H62.4982C62.7394 5.46338 63.0561 4.89178 63.4484 4.22585L64.455 2.49628H65.5338V6.62135H64.8101V6.62249Z" fill="black"/>
</svg>
