<svg width="95" height="48" viewBox="0 0 95 48" fill="none" xmlns="http://www.w3.org/2000/svg">
<g clip-path="url(#clip0_2223_2923)">
<path d="M1.15796 17.189H5.11433C6.80302 17.189 8.15397 15.8409 8.15397 14.1557C8.15397 12.4705 6.80302 11.1223 5.11433 11.1223H1.15796V17.189ZM5.11433 18.3446H0V3.12964H8.20222V4.2852H1.15796V9.91858H5.11433C7.43025 9.91858 9.36018 11.7964 9.36018 14.1075C9.36018 16.4186 7.4785 18.2964 5.11433 18.2964V18.3446Z" fill="black"/>
<path d="M71.7463 3.17773L61.9036 16.1778V3.17773H60.6974V18.3445H61.9036L71.7463 5.34442V18.3445H72.9525V3.17773H71.7463Z" fill="black"/>
<path d="M47.9115 10.4963C49.0695 9.82225 49.8897 8.66669 49.8897 6.98149C49.8897 4.33332 47.6703 2.93701 45.4508 2.93701C43.9069 2.93701 42.3147 3.61109 41.398 4.67036L42.0735 5.72963C42.7007 4.76666 44.0999 4.14073 45.4508 4.14073C47.043 4.14073 48.7317 5.0074 48.7317 6.98149C48.7317 9.9667 45.5473 10.063 45.1614 10.063H44.2446V11.2186H45.1614H45.2096C48.587 11.2186 49.3107 12.9519 49.3107 14.3964C49.3107 16.563 47.2843 17.3334 45.5956 17.3334C44.0516 17.3334 42.4594 16.6593 41.7357 15.6482L41.0602 16.6593C42.0735 17.7668 43.8586 18.489 45.5956 18.489C48.0563 18.489 50.5169 17.189 50.5169 14.3482C50.5169 12.4223 49.6002 11.1223 47.9598 10.4482L47.9115 10.4963Z" fill="black"/>
<path d="M90.1269 18.5371C85.9293 18.5371 82.8414 15.263 82.8414 10.7371C82.8414 6.21111 85.8811 2.93701 90.1269 2.93701C91.8156 2.93701 93.4078 3.46665 94.614 4.42962L93.9868 5.39259C92.9736 4.57406 91.6226 4.09258 90.1752 4.09258C86.6048 4.09258 84.0476 6.88519 84.0476 10.7371C84.0476 14.589 86.6048 17.3816 90.1752 17.3816C91.5744 17.3816 92.8771 16.9482 94.035 16.0816L94.2763 15.889L95 16.8038L94.7588 16.9964C93.4078 18.0075 91.8156 18.5371 90.1752 18.5371H90.1269Z" fill="black"/>
<path d="M17.2252 15.7927L23.0632 2.74447L27.1643 10.7371L17.2252 15.7927ZM33.4366 8.85933L33.8709 9.72601L34.6911 8.42599L35.5113 7.12598L33.9674 7.02969L32.4234 6.93339L32.8577 7.80006L28.1293 10.2075L22.9185 0L14.7163 18.2964L27.5986 11.7482L33.2919 22.8706L34.3534 22.3409L28.66 11.2186L33.3884 8.81118L33.4366 8.85933Z" fill="black"/>
<path d="M4.29438 29.9484C4.29438 29.8039 4.29438 29.6595 4.24613 29.4669C4.19788 29.3224 4.10138 29.178 4.00489 29.0335C3.90839 28.8891 3.76365 28.7928 3.57065 28.7447C3.37766 28.6484 3.13642 28.6002 2.84693 28.6002V31.2484C3.08817 31.2484 3.28116 31.2002 3.47416 31.1039C3.66715 31.0076 3.81189 30.9595 3.90839 30.815C4.05314 30.7187 4.10138 30.5743 4.19788 30.4299C4.24613 30.2854 4.29438 30.0928 4.29438 29.9484ZM0.772248 29.9484C0.772248 30.3817 0.916993 30.6706 1.15823 30.9113C1.39948 31.1039 1.78546 31.2484 2.3162 31.2965V28.6484C2.02671 28.6484 1.78546 28.6965 1.59247 28.7928C1.39948 28.8891 1.25473 28.9854 1.10999 29.0817C0.965241 29.2261 0.916993 29.3224 0.868745 29.515C0.820496 29.6595 0.772248 29.8521 0.772248 29.9965V29.9484ZM4.82511 29.9002C4.82511 30.141 4.77686 30.3817 4.68036 30.5743C4.58387 30.7669 4.43912 30.9595 4.29438 31.1039C4.10138 31.2484 3.90839 31.3928 3.66715 31.4891C3.42591 31.5854 3.13642 31.6336 2.79868 31.6336V32.1151H2.26795V31.6336C1.93021 31.6336 1.59247 31.5854 1.35123 31.4891C1.10999 31.3928 0.868745 31.2965 0.724 31.1521C0.579255 31.0076 0.43451 30.815 0.338013 30.6225C0.241516 30.4299 0.193268 30.1891 0.193268 29.9484C0.193268 29.7076 0.241516 29.515 0.338013 29.3224C0.43451 29.1298 0.531006 28.9373 0.724 28.7928C0.916993 28.6484 1.10999 28.5039 1.35123 28.4076C1.59247 28.3113 1.93021 28.2632 2.26795 28.215V27.8298H2.79868V28.215C3.18467 28.215 3.47416 28.2632 3.7154 28.4076C3.95664 28.5039 4.19788 28.6484 4.34263 28.7928C4.48737 28.9373 4.63212 29.1298 4.68036 29.3224C4.72861 29.515 4.77686 29.7076 4.77686 29.9484L4.82511 29.9002Z" fill="black"/>
<path d="M7.62351 30.6225C7.62351 30.4781 7.62351 30.3336 7.57526 30.1892C7.57526 30.0447 7.52701 29.9003 7.47876 29.804C7.43051 29.6596 7.33402 29.5633 7.23752 29.5151C7.14102 29.4188 6.99628 29.4188 6.80328 29.4188C6.61029 29.4188 6.46555 29.467 6.36905 29.5151C6.27255 29.6114 6.17606 29.7077 6.12781 29.804C6.07956 29.9003 6.03131 30.0447 5.98306 30.1892C5.93481 30.3336 5.93481 30.4781 5.93481 30.6225C5.93481 30.767 5.93481 30.9114 5.98306 31.0559C5.98306 31.2003 6.03131 31.3448 6.12781 31.4411C6.17606 31.5373 6.27255 31.6336 6.36905 31.6818C6.46555 31.7299 6.61029 31.7781 6.80328 31.7781C6.99628 31.7781 7.09277 31.7299 7.23752 31.6818C7.33402 31.6336 7.43051 31.5373 7.47876 31.3929C7.52701 31.2966 7.57526 31.1522 7.62351 31.0077C7.62351 30.8633 7.67175 30.7188 7.67175 30.5744L7.62351 30.6225ZM8.15424 30.6225C8.15424 30.8151 8.15424 31.0077 8.10599 31.2003C8.05774 31.3929 7.96124 31.5855 7.86475 31.7299C7.76825 31.8744 7.62351 32.0188 7.43051 32.1151C7.23752 32.2114 7.04453 32.2596 6.75504 32.2596C6.51379 32.2596 6.27255 32.2114 6.12781 32.1151C5.93481 32.0188 5.83832 31.9225 5.69357 31.7781C5.59708 31.6336 5.50058 31.4892 5.45233 31.2966C5.40408 31.104 5.40408 30.9114 5.40408 30.6707C5.40408 30.4781 5.45233 30.2855 5.50058 30.0447C5.54883 29.8521 5.64532 29.6596 5.74182 29.5151C5.83832 29.3707 5.98306 29.2262 6.17606 29.1299C6.36905 29.0336 6.56204 28.9855 6.80328 28.9855C7.04453 28.9855 7.28577 29.0336 7.43051 29.1299C7.62351 29.2262 7.72 29.3225 7.86475 29.5151C7.96124 29.6596 8.05774 29.8521 8.10599 30.0447C8.15424 30.2373 8.15424 30.4299 8.15424 30.6225Z" fill="black"/>
<path d="M10.8554 32.1632V30.7188H9.31149V32.1632H8.82901V29.0336H9.35974V30.2854H10.8554V29.0336H11.3379V32.1632H10.8554Z" fill="black"/>
<path d="M13.1235 29.4669V29.7557C13.1235 30.0446 13.0753 30.2854 13.0753 30.478C13.0753 30.6706 13.027 30.8632 13.027 31.0558C12.9788 31.2002 12.9788 31.3446 12.9305 31.4891C12.8823 31.6335 12.834 31.7298 12.7375 31.8261H14.2815V29.515H13.1718L13.1235 29.4669ZM14.7157 31.778H15.0052V33.0298H14.571V32.1632H12.1585V33.0298H11.7243V31.778H12.0138C12.1103 31.6817 12.2068 31.5854 12.255 31.4409C12.3033 31.2965 12.3515 31.1521 12.3998 30.9595C12.448 30.7669 12.448 30.5743 12.448 30.3817C12.448 30.1409 12.4963 29.9002 12.4963 29.6594L12.5445 29.0817H14.6192V31.778H14.7157Z" fill="black"/>
<path d="M17.8524 31.5855C17.9007 31.6336 17.9489 31.6336 17.9972 31.6818C18.0454 31.7299 18.1419 31.7299 18.1902 31.7781C18.2384 31.7781 18.3349 31.8262 18.4314 31.8262C18.5279 31.8262 18.5761 31.8262 18.6726 31.8262C18.7691 31.8262 18.8656 31.8262 18.9621 31.7781C19.0586 31.7299 19.1551 31.6818 19.2034 31.5855C19.2999 31.4892 19.3481 31.3448 19.3964 31.2003C19.4446 31.0559 19.4446 30.8151 19.4446 30.5744C19.4446 30.3336 19.4446 30.1892 19.3964 30.0447C19.3481 29.9003 19.2999 29.804 19.2516 29.7077C19.2034 29.6114 19.1069 29.5633 19.0104 29.5151C18.9139 29.467 18.8174 29.467 18.6726 29.467C18.6244 29.467 18.5279 29.467 18.4796 29.5151C18.3831 29.5151 18.3349 29.5633 18.2384 29.6114C18.1419 29.6596 18.0937 29.6596 18.0454 29.7077C17.9972 29.7559 17.9489 29.804 17.9007 29.804V31.6336L17.8524 31.5855ZM17.8524 29.3225C17.9972 29.2262 18.1419 29.1299 18.2867 29.0818C18.4314 29.0336 18.6244 28.9855 18.7691 28.9855C19.0104 28.9855 19.1551 29.0336 19.3481 29.1299C19.4929 29.2262 19.6376 29.3225 19.6859 29.467C19.7824 29.6114 19.8306 29.7559 19.8788 29.9484C19.9271 30.141 19.9271 30.3336 19.9271 30.5262C19.9271 30.767 19.9271 30.9596 19.8788 31.1522C19.8306 31.3448 19.7824 31.5373 19.6859 31.6818C19.5894 31.8262 19.4446 31.9707 19.2999 32.0188C19.1551 32.1151 18.9621 32.1633 18.7209 32.1633C18.6726 32.1633 18.5761 32.1633 18.5279 32.1633C18.4314 32.1633 18.3831 32.1633 18.2867 32.1151C18.1902 32.1151 18.1419 32.067 18.0454 32.067C17.9489 32.0188 17.9007 32.0188 17.8524 31.9707V33.4633H17.3217V29.0336H17.8042V29.3225L17.8524 29.3707V29.3225Z" fill="black"/>
<path d="M21.7616 30.7188C21.5686 30.7188 21.3756 30.7669 21.2791 30.8632C21.1826 30.9595 21.1344 31.104 21.1344 31.2484C21.1344 31.441 21.1826 31.5854 21.2791 31.6336C21.3756 31.7299 21.5204 31.778 21.7133 31.778C21.8581 31.778 22.0028 31.7299 22.1476 31.6817C22.2923 31.6336 22.4371 31.4891 22.5818 31.3928V30.6706L21.8098 30.7188H21.7616ZM23.0643 31.778H23.4985L23.5468 32.0669C23.4503 32.1151 23.402 32.1151 23.3055 32.1632C23.209 32.1632 23.1126 32.2114 23.0161 32.2114C22.8713 32.2114 22.7748 32.1632 22.7266 32.1151C22.6783 32.0669 22.6301 31.9706 22.6301 31.778C22.5336 31.8743 22.3888 31.9706 22.2923 32.0188C22.1958 32.0669 22.0993 32.1151 22.0028 32.1632C21.9063 32.2114 21.8098 32.2114 21.7616 32.2114C21.6651 32.2114 21.6169 32.2114 21.5686 32.2114C21.3756 32.2114 21.2309 32.1632 21.1344 32.1151C21.0379 32.0669 20.9414 31.9706 20.8449 31.8743C20.7966 31.778 20.7484 31.6817 20.7001 31.5854C20.6519 31.4891 20.6519 31.3928 20.6519 31.2966C20.6519 31.0077 20.7484 30.8151 20.9414 30.6225C21.1344 30.478 21.4239 30.3817 21.8098 30.3336L22.5818 30.2854V30.0928C22.5818 29.8521 22.5336 29.6595 22.4371 29.5632C22.3406 29.4669 22.1476 29.4188 21.9063 29.4188C21.7616 29.4188 21.6169 29.4188 21.4239 29.4669C21.2791 29.5151 21.0861 29.5151 20.9414 29.6114L20.8449 29.2743C21.0379 29.178 21.2309 29.1299 21.4239 29.0817C21.6169 29.0336 21.8581 29.0336 22.0511 29.0336C22.3888 29.0336 22.6301 29.1299 22.8231 29.2743C23.0161 29.4188 23.1126 29.7076 23.1126 30.0928V31.8262L23.0643 31.778Z" fill="black"/>
<path d="M24.8947 32.2113C24.7017 32.2113 24.4604 32.2113 24.2674 32.1632C24.0744 32.115 23.8814 32.0669 23.7849 32.0187L23.9297 31.6817C24.0744 31.7298 24.2674 31.778 24.3639 31.8261C24.5087 31.8743 24.6534 31.8743 24.7982 31.8743C25.0876 31.8743 25.3289 31.8261 25.4736 31.7298C25.6184 31.6335 25.7149 31.4891 25.7149 31.2483C25.7149 31.1521 25.7149 31.0558 25.6666 31.0076C25.6184 30.9595 25.5701 30.8632 25.4736 30.8632C25.4254 30.815 25.3289 30.815 25.2324 30.7669C25.1359 30.7669 25.0876 30.7669 24.9912 30.7669H24.5087V30.4298H24.8947C24.9912 30.4298 25.0394 30.4298 25.1359 30.4298C25.2324 30.4298 25.2806 30.3817 25.3771 30.3335C25.4254 30.2854 25.5219 30.2372 25.5701 30.1891C25.6184 30.1409 25.6184 30.0446 25.6184 29.9483C25.6184 29.8039 25.5701 29.7076 25.4736 29.6113C25.3771 29.515 25.2324 29.4669 24.9912 29.4669C24.8947 29.4669 24.7499 29.4669 24.6052 29.4669C24.4604 29.4669 24.2674 29.515 24.0262 29.6113L23.9297 29.2743C24.0744 29.2261 24.2674 29.1298 24.4604 29.1298C24.6534 29.0817 24.8464 29.0817 25.0394 29.0817C25.3771 29.0817 25.6666 29.1298 25.8596 29.2743C26.0526 29.4187 26.1491 29.6113 26.1491 29.852C26.1491 30.0446 26.1009 30.1891 26.0044 30.2854C25.9079 30.3817 25.7631 30.478 25.6184 30.5261C25.8114 30.5743 25.9561 30.6706 26.0526 30.815C26.1491 30.9595 26.2456 31.1039 26.2456 31.2965C26.2456 31.4891 26.1974 31.6335 26.1491 31.7298C26.1009 31.8743 25.9561 31.9706 25.8596 32.0187C25.7149 32.115 25.6184 32.1632 25.4254 32.2113C25.2806 32.2595 25.0876 32.2595 24.8947 32.2595V32.2113Z" fill="black"/>
<path d="M27.4546 30.7188V31.778H28.3231C28.4196 31.778 28.5643 31.778 28.6126 31.7299C28.709 31.6817 28.7573 31.6817 28.8055 31.6336C28.8538 31.5854 28.902 31.5373 28.902 31.4891C28.902 31.441 28.9503 31.3447 28.9503 31.2966C28.9503 31.1521 28.902 31.0558 28.8055 30.9595C28.709 30.8632 28.5161 30.8151 28.3231 30.8151H27.4546V30.7188ZM27.4546 29.4188V30.3336H28.2748C28.4678 30.3336 28.6126 30.2854 28.709 30.1891C28.8055 30.0928 28.8538 29.9965 28.8538 29.8521C28.8538 29.7076 28.8055 29.6114 28.709 29.5151C28.6126 29.4188 28.4678 29.3706 28.2266 29.3706H27.4546V29.4188ZM28.3713 29.0336C28.709 29.0336 28.9503 29.1299 29.1433 29.2743C29.288 29.4188 29.3845 29.6114 29.3845 29.8521C29.3845 29.9484 29.3363 30.0928 29.288 30.1891C29.2398 30.2854 29.1433 30.4299 28.9985 30.5262C29.095 30.5743 29.1915 30.6225 29.2398 30.6706C29.288 30.7188 29.3363 30.8151 29.3845 30.8632C29.4328 30.9114 29.4328 31.0077 29.481 31.0558C29.481 31.1521 29.481 31.2003 29.481 31.2484C29.481 31.3928 29.4328 31.4891 29.3845 31.5854C29.3363 31.6817 29.2398 31.778 29.1915 31.8743C29.095 31.9706 28.9985 32.0188 28.902 32.0669C28.8055 32.1151 28.6608 32.1151 28.5161 32.1151H26.9721V29.0336H28.3713Z" fill="black"/>
<path d="M32.1335 32.1632V29.7558C32.1335 29.7558 32.0853 29.8521 31.9888 29.9965C31.8923 30.141 31.7958 30.2854 31.6993 30.478C31.6028 30.6225 31.4581 30.8151 31.3616 31.0077C31.2168 31.2003 31.1203 31.3928 31.0238 31.5373C30.9273 31.6817 30.8308 31.8262 30.7343 31.9706C30.6378 32.0669 30.6378 32.1632 30.5896 32.1632H30.1071V29.0817H30.6378V31.441H30.6861C30.7343 31.3447 30.7826 31.2966 30.8308 31.2003C30.8791 31.104 30.9273 31.0558 30.9756 30.9595C31.1686 30.6225 31.3616 30.3817 31.5063 30.141C31.6511 29.9484 31.7476 29.7558 31.8441 29.6114C31.9406 29.4669 31.9888 29.3706 32.037 29.2743C32.0853 29.178 32.1335 29.1299 32.1818 29.0336H32.6643C32.6643 29.2262 32.6643 29.4669 32.6643 29.7558C32.6643 30.0447 32.6643 30.3336 32.6643 30.6225C32.6643 30.9114 32.6643 31.2003 32.6643 31.4891C32.6643 31.778 32.6643 32.0188 32.6643 32.2114H32.1335V32.1632Z" fill="black"/>
<path d="M34.1605 29.4669H33.0991V29.0336H35.7527V29.4669H34.6913V32.1632H34.1605V29.4669Z" fill="black"/>
<path d="M38.2122 32.1632V29.7558C38.2122 29.7558 38.1639 29.8521 38.0674 29.9965C37.9709 30.141 37.8744 30.2854 37.7779 30.478C37.6814 30.6225 37.5367 30.8151 37.4402 31.0077C37.2954 31.2003 37.1989 31.3928 37.1024 31.5373C37.006 31.6817 36.9095 31.8262 36.813 31.9706C36.7165 32.0669 36.7165 32.1632 36.6682 32.1632H36.1857V29.0817H36.7165V31.441H36.7647C36.813 31.3447 36.8612 31.2966 36.9095 31.2003C36.9577 31.104 37.006 31.0558 37.0542 30.9595C37.2472 30.6225 37.4402 30.3817 37.5849 30.141C37.7297 29.9484 37.8262 29.7558 37.9227 29.6114C38.0192 29.4669 38.0674 29.3706 38.1157 29.2743C38.1639 29.178 38.2122 29.1299 38.2604 29.0336H38.7429C38.7429 29.2262 38.7429 29.4669 38.7429 29.7558C38.7429 30.0447 38.7429 30.3336 38.7429 30.6225C38.7429 30.9114 38.7429 31.2003 38.7429 31.4891C38.7429 31.778 38.7429 32.0188 38.7429 32.2114H38.2122V32.1632Z" fill="black"/>
<path d="M41.3974 30.478V29.4187H40.6737C40.4807 29.4187 40.3359 29.4669 40.1912 29.515C40.0464 29.6113 39.9982 29.7076 39.9982 29.9002C39.9982 29.9965 39.9982 30.0928 40.0464 30.1891C40.0947 30.2372 40.1429 30.3335 40.1912 30.3335C40.2394 30.3817 40.3359 30.3817 40.3842 30.4298C40.4807 30.4298 40.5289 30.4298 40.5772 30.4298H41.3492L41.3974 30.478ZM40.0464 30.7187C39.8535 30.6706 39.7087 30.5743 39.6605 30.4298C39.564 30.2854 39.564 30.1409 39.564 29.9965C39.564 29.852 39.564 29.7557 39.6122 29.6113C39.6605 29.515 39.7087 29.4187 39.8052 29.3224C39.9017 29.2261 39.9982 29.178 40.1429 29.1298C40.2877 29.0817 40.4324 29.0817 40.6254 29.0817H41.9764V32.1632H41.4457V30.8632H40.8667C40.6737 30.8632 40.5289 30.9113 40.4324 30.9595C40.3359 31.0076 40.2394 31.1521 40.1912 31.2965L39.9017 32.1632H39.371L39.6605 31.2483C39.7087 31.1521 39.757 31.0558 39.8052 30.9595C39.8535 30.8632 39.95 30.815 40.0464 30.7669V30.7187Z" fill="black"/>
<path d="M1.15802 37.0744H0.0483093V36.6892H2.75022V37.0744H1.68875V39.7707H1.15802V37.0744Z" fill="black"/>
<path d="M4.29459 36.9781C4.14984 36.9781 4.0051 37.0262 3.9086 37.0744C3.8121 37.1225 3.71561 37.2188 3.66736 37.3151C3.61911 37.4114 3.57086 37.5077 3.52261 37.6522C3.47437 37.7966 3.47437 37.8929 3.47437 38.0374H5.06656C5.06656 37.8929 5.06656 37.7485 5.01831 37.604C4.97006 37.4596 4.97006 37.3633 4.87357 37.267C4.82532 37.1707 4.72882 37.1225 4.63233 37.0744C4.53583 37.0262 4.43933 36.9781 4.29459 36.9781ZM4.29459 36.5929C4.48758 36.5929 4.68057 36.641 4.82532 36.6892C4.97006 36.7373 5.06656 36.8336 5.16306 36.8818C5.25955 36.9781 5.3078 37.0744 5.35605 37.1707C5.4043 37.267 5.45255 37.4114 5.45255 37.5077C5.45255 37.604 5.5008 37.7003 5.5008 37.7966C5.5008 37.8929 5.5008 37.9892 5.5008 38.0374V38.2781H3.42612C3.42612 38.4225 3.42612 38.567 3.47437 38.7114C3.52261 38.8559 3.57086 38.9522 3.61911 39.0485C3.66736 39.1448 3.76386 39.2411 3.9086 39.2892C4.0051 39.3374 4.14984 39.3855 4.34284 39.3855C4.53583 39.3855 4.68057 39.3855 4.82532 39.3374C4.97006 39.2892 5.16306 39.2411 5.3078 39.1929L5.45255 39.53C5.25955 39.6263 5.06656 39.7226 4.87357 39.7226C4.68057 39.7707 4.48758 39.7707 4.29459 39.7707C4.0051 39.7707 3.8121 39.7226 3.61911 39.6263C3.42612 39.53 3.28137 39.4337 3.18488 39.2892C3.08838 39.1448 2.99188 39.0003 2.99188 38.8077C2.94363 38.6151 2.94363 38.4225 2.94363 38.1818C2.94363 38.0855 2.94363 37.9892 2.94363 37.8448C2.94363 37.7485 2.99188 37.604 3.04013 37.5077C3.08838 37.4114 3.13663 37.267 3.18488 37.1707C3.23312 37.0744 3.32962 36.9299 3.42612 36.8818C3.52261 36.7855 3.66736 36.7373 3.8121 36.6892C3.95685 36.641 4.10159 36.5929 4.29459 36.5929Z" fill="black"/>
<path d="M8.3483 38.2299C8.3483 38.0855 8.3483 37.9411 8.30005 37.7966C8.30005 37.6522 8.2518 37.5077 8.20356 37.4114C8.15531 37.267 8.05881 37.1707 7.96231 37.1225C7.86582 37.0262 7.72107 37.0262 7.52808 37.0262C7.33508 37.0262 7.19034 37.0744 7.09384 37.1225C6.99735 37.2188 6.90085 37.3151 6.8526 37.4114C6.80435 37.5077 6.7561 37.6522 6.70786 37.7966C6.65961 37.9411 6.65961 38.0855 6.65961 38.2299C6.65961 38.3744 6.65961 38.5188 6.70786 38.6633C6.70786 38.8077 6.7561 38.9522 6.8526 39.0485C6.90085 39.1448 6.99735 39.2411 7.09384 39.2892C7.19034 39.3374 7.33508 39.3855 7.52808 39.3855C7.72107 39.3855 7.81757 39.3374 7.96231 39.2892C8.05881 39.2411 8.15531 39.1448 8.20356 39.0003C8.2518 38.904 8.30005 38.7596 8.3483 38.6151C8.3483 38.4707 8.39655 38.3262 8.39655 38.1818L8.3483 38.2299ZM8.87903 38.2299C8.87903 38.4225 8.87903 38.6151 8.83078 38.8077C8.78254 39.0003 8.68604 39.1929 8.58954 39.3374C8.49305 39.4818 8.3483 39.6263 8.15531 39.7225C7.96231 39.8188 7.76932 39.867 7.47983 39.867C7.23859 39.867 6.99735 39.8188 6.8526 39.7225C6.65961 39.6263 6.56311 39.53 6.41837 39.3855C6.32187 39.2411 6.22537 39.0966 6.17712 38.904C6.12888 38.7114 6.12888 38.5188 6.12888 38.2781C6.12888 38.0855 6.17712 37.8929 6.22537 37.6522C6.27362 37.4596 6.37012 37.267 6.46661 37.1225C6.56311 36.9781 6.70786 36.8336 6.90085 36.7373C7.09384 36.641 7.28684 36.5929 7.52808 36.5929C7.76932 36.5929 8.01056 36.641 8.15531 36.7373C8.3483 36.8336 8.49305 36.9299 8.58954 37.1225C8.68604 37.267 8.78254 37.4596 8.83078 37.6522C8.87903 37.8448 8.87903 38.0374 8.87903 38.2299Z" fill="black"/>
<path d="M10.0845 39.2411C10.1328 39.2893 10.181 39.2893 10.2293 39.3374C10.2775 39.3856 10.374 39.3856 10.4223 39.4337C10.4705 39.4337 10.567 39.4819 10.6635 39.4819C10.76 39.4819 10.8083 39.4819 10.9048 39.4819C11.0013 39.4819 11.0977 39.4819 11.1942 39.4337C11.2907 39.3856 11.3872 39.3374 11.4355 39.2411C11.532 39.1448 11.5802 39.0004 11.6285 38.8559C11.6767 38.7115 11.6767 38.4708 11.6767 38.23C11.6767 37.9893 11.6767 37.8448 11.6285 37.7004C11.5802 37.5559 11.532 37.4596 11.4837 37.3633C11.4355 37.267 11.339 37.2189 11.2425 37.1707C11.146 37.1226 11.0495 37.1226 10.9048 37.1226C10.8565 37.1226 10.76 37.1226 10.7118 37.1707C10.6153 37.1707 10.567 37.2189 10.4705 37.267C10.374 37.3152 10.3258 37.3152 10.2775 37.3633C10.2293 37.4115 10.181 37.4596 10.1328 37.4596V39.2893L10.0845 39.2411ZM10.0845 36.9782C10.2293 36.8819 10.374 36.7856 10.5188 36.7374C10.6635 36.6893 10.8565 36.6411 11.0013 36.6411C11.2425 36.6411 11.3872 36.6893 11.5802 36.7856C11.725 36.8819 11.8697 36.9782 11.918 37.1226C12.0145 37.267 12.0627 37.4115 12.111 37.6041C12.1592 37.7967 12.1592 37.9893 12.1592 38.1819C12.1592 38.4226 12.1592 38.6152 12.111 38.8078C12.0627 39.0004 12.0145 39.193 11.918 39.3374C11.8215 39.4819 11.6767 39.6263 11.532 39.6745C11.3872 39.7708 11.1942 39.8189 10.953 39.8189C10.9048 39.8189 10.8083 39.8189 10.76 39.8189C10.6635 39.8189 10.6153 39.8189 10.5188 39.7708C10.4223 39.7708 10.374 39.7226 10.2775 39.7226C10.181 39.6745 10.1328 39.6745 10.0845 39.6263V41.1189H9.5538V36.6893H10.0363V36.9782L10.0845 37.0263V36.9782Z" fill="black"/>
<path d="M14.1847 36.9781C14.0399 36.9781 13.8952 37.0262 13.7987 37.0744C13.7022 37.1225 13.6057 37.2188 13.5575 37.3151C13.5092 37.4114 13.461 37.5077 13.4127 37.6522C13.3645 37.7966 13.3645 37.8929 13.3645 38.0374H14.9567C14.9567 37.8929 14.9567 37.7485 14.9084 37.604C14.8602 37.4596 14.8602 37.3633 14.7637 37.267C14.7154 37.1707 14.6189 37.1225 14.5224 37.0744C14.4259 37.0262 14.3294 36.9781 14.1847 36.9781ZM14.1847 36.5929C14.3777 36.5929 14.5707 36.641 14.7154 36.6892C14.8602 36.7373 14.9567 36.8336 15.0532 36.8818C15.1497 36.9781 15.1979 37.0744 15.2462 37.1707C15.2944 37.267 15.3427 37.4114 15.3427 37.5077C15.3427 37.604 15.3909 37.7003 15.3909 37.7966C15.3909 37.8929 15.3909 37.9892 15.3909 38.0374V38.2781H13.3162C13.3162 38.4225 13.3162 38.567 13.3645 38.7114C13.4127 38.8559 13.461 38.9522 13.5092 39.0485C13.5575 39.1448 13.654 39.2411 13.7987 39.2892C13.8952 39.3374 14.0399 39.3855 14.2329 39.3855C14.4259 39.3855 14.5707 39.3855 14.7154 39.3374C14.8602 39.2892 15.0532 39.2411 15.1979 39.1929L15.3427 39.53C15.1497 39.6263 14.9567 39.7226 14.7637 39.7226C14.5707 39.7707 14.3777 39.7707 14.1847 39.7707C13.8952 39.7707 13.7022 39.7226 13.5092 39.6263C13.3162 39.53 13.1715 39.4337 13.075 39.2892C12.9785 39.1448 12.882 39.0003 12.882 38.8077C12.8337 38.6151 12.8337 38.4225 12.8337 38.1818C12.8337 38.0855 12.8337 37.9892 12.8337 37.8448C12.8337 37.7485 12.882 37.604 12.9302 37.5077C12.9785 37.4114 13.0267 37.267 13.075 37.1707C13.1232 37.0744 13.2197 36.9299 13.3162 36.8818C13.4127 36.7855 13.5575 36.7373 13.7022 36.6892C13.847 36.641 13.9917 36.5929 14.2329 36.5929H14.1847Z" fill="black"/>
<path d="M16.8871 37.0744H15.7774V36.6892H18.4793V37.0744H17.4178V39.7707H16.8871V37.0744Z" fill="black"/>
<path d="M20.9388 39.7708V37.3633C20.9388 37.3633 20.8906 37.4596 20.7941 37.6041C20.6976 37.7485 20.6011 37.893 20.5046 38.0856C20.4081 38.23 20.2633 38.4226 20.1668 38.6152C20.0221 38.8078 19.9256 39.0004 19.8291 39.1448C19.7326 39.2893 19.6361 39.4337 19.5396 39.5782C19.4431 39.6745 19.4431 39.7708 19.3949 39.7708H18.9124V36.6893H19.4431V39.0485H19.4914C19.5396 38.9522 19.5879 38.9041 19.6361 38.8078C19.6844 38.7115 19.7326 38.6634 19.7809 38.5671C19.9738 38.23 20.1668 37.9893 20.3116 37.7485C20.4563 37.5559 20.5528 37.3633 20.6493 37.2189C20.7458 37.0745 20.7941 36.9782 20.8423 36.8819C20.8906 36.7856 20.9388 36.7374 20.9871 36.6411H21.4695C21.4695 36.8337 21.4695 37.0745 21.4695 37.3633C21.4695 37.6522 21.4695 37.9411 21.4695 38.23C21.4695 38.5189 21.4695 38.8078 21.4695 39.0967C21.4695 39.3856 21.4695 39.6263 21.4695 39.8189H20.9388V39.7708Z" fill="black"/>
<path d="M24.0274 39.7707V38.3744C23.8827 38.4707 23.6897 38.5188 23.4967 38.567C23.3037 38.6151 23.1107 38.6151 22.9659 38.6151C22.7729 38.6151 22.58 38.567 22.4835 38.5188C22.3387 38.4707 22.2905 38.3744 22.194 38.2781C22.1457 38.1818 22.0975 38.0855 22.0492 37.9411C22.0492 37.8448 22.001 37.7003 22.001 37.604V36.641H22.5317V37.4596C22.5317 37.5559 22.5317 37.6522 22.5317 37.7485C22.5317 37.8448 22.58 37.8929 22.6282 37.9411C22.6765 37.9892 22.7247 38.0374 22.7729 38.0855C22.8212 38.1336 22.9177 38.1336 23.0624 38.1336C23.2072 38.1336 23.3519 38.1336 23.5449 38.0855C23.6897 38.0374 23.8344 37.9892 23.9792 37.9411V36.5929H24.5099V39.7226H23.9792L24.0274 39.7707Z" fill="black"/>
<path d="M26.6338 36.9781C26.4891 36.9781 26.3443 37.0262 26.2478 37.0744C26.1513 37.1225 26.0548 37.2188 26.0066 37.3151C25.9583 37.4114 25.9101 37.5077 25.8618 37.6522C25.8136 37.7966 25.8136 37.8929 25.8136 38.0374H27.4058C27.4058 37.8929 27.4058 37.7485 27.3575 37.604C27.3093 37.4596 27.3093 37.3633 27.2128 37.267C27.1646 37.1707 27.0681 37.1225 26.9716 37.0744C26.8751 37.0262 26.7786 36.9781 26.6338 36.9781ZM26.6338 36.5929C26.8268 36.5929 27.0198 36.641 27.1646 36.6892C27.3093 36.7373 27.4058 36.8336 27.5023 36.8818C27.5988 36.9781 27.647 37.0744 27.6953 37.1707C27.7435 37.267 27.7918 37.4114 27.7918 37.5077C27.7918 37.604 27.84 37.7003 27.84 37.7966C27.84 37.8929 27.84 37.9892 27.84 38.0374V38.2781H25.7654C25.7654 38.4225 25.7654 38.567 25.8136 38.7114C25.8618 38.8559 25.9101 38.9522 25.9583 39.0485C26.0066 39.1448 26.1031 39.2411 26.2478 39.2892C26.3443 39.3374 26.4891 39.3855 26.6821 39.3855C26.8751 39.3855 27.0198 39.3855 27.1646 39.3374C27.3093 39.2892 27.5023 39.2411 27.647 39.1929L27.7918 39.53C27.5988 39.6263 27.4058 39.7226 27.2128 39.7226C27.0198 39.7707 26.8268 39.7707 26.6338 39.7707C26.3443 39.7707 26.1513 39.7226 25.9583 39.6263C25.7654 39.53 25.6206 39.4337 25.5241 39.2892C25.4276 39.1448 25.3311 39.0003 25.3311 38.8077C25.2829 38.6151 25.2829 38.4225 25.2829 38.1818C25.2829 38.0855 25.2829 37.9892 25.2829 37.8448C25.2829 37.7485 25.3311 37.604 25.3794 37.5077C25.4276 37.4114 25.4759 37.267 25.5241 37.1707C25.5724 37.0744 25.6689 36.9299 25.7654 36.8818C25.8618 36.7855 26.0066 36.7373 26.1513 36.6892C26.2961 36.641 26.4408 36.5929 26.6338 36.5929Z" fill="black"/>
<path d="M28.9969 38.23C28.9969 38.4226 28.9969 38.567 29.0451 38.7114C29.0934 38.8559 29.1416 39.0003 29.1899 39.0966C29.2381 39.1929 29.3346 39.2892 29.4794 39.3374C29.5759 39.3855 29.7206 39.4337 29.9136 39.4337C30.0584 39.4337 30.2031 39.4337 30.3478 39.3855C30.4926 39.3374 30.6373 39.2892 30.7821 39.2411L30.9268 39.5781C30.7821 39.6744 30.6373 39.7226 30.4443 39.7707C30.2513 39.8189 30.0584 39.867 29.8654 39.867C29.6241 39.867 29.3829 39.8189 29.1899 39.7707C28.9969 39.6744 28.8521 39.5781 28.7556 39.4337C28.6591 39.2892 28.5627 39.1448 28.5144 38.9522C28.4662 38.7596 28.4662 38.567 28.4662 38.3263C28.4662 38.1818 28.4662 37.9892 28.5144 37.7966C28.5627 37.604 28.6109 37.4114 28.7074 37.267C28.8039 37.1225 28.9486 36.9781 29.1416 36.8337C29.3346 36.7374 29.5759 36.6892 29.8654 36.6892C30.0101 36.6892 30.1548 36.6892 30.2996 36.7374C30.4443 36.7374 30.5891 36.7855 30.7821 36.8818L30.6373 37.267C30.4926 37.2188 30.3478 37.1707 30.2513 37.1707C30.1548 37.1707 30.0101 37.1707 29.9136 37.1707C29.6241 37.1707 29.3829 37.267 29.2381 37.5077C29.0934 37.7003 28.9969 37.9892 28.9969 38.3744V38.23Z" fill="black"/>
<path d="M31.4098 39.7707V36.6892H31.8923V37.9411H32.4713C32.5195 37.9411 32.5678 37.9411 32.6643 37.9411C32.7125 37.9411 32.7608 37.8929 32.8573 37.8929C32.9055 37.8448 32.9538 37.7966 33.002 37.7485C33.0503 37.7003 33.0985 37.604 33.0985 37.5077L33.3398 36.7374H33.8222L33.581 37.604C33.4845 37.8929 33.3398 38.0855 33.1468 38.1818C33.2915 38.23 33.388 38.2781 33.4845 38.3744C33.581 38.4707 33.6292 38.567 33.6775 38.7114L34.0152 39.8189H33.5327L33.2433 38.8077C33.195 38.7114 33.1468 38.6152 33.0985 38.567C33.0503 38.5189 33.002 38.4707 32.9055 38.4226C32.8573 38.3744 32.7608 38.3744 32.7125 38.3744C32.6643 38.3744 32.5678 38.3744 32.5195 38.3744H31.9406V39.867H31.4581L31.4098 39.7707Z" fill="black"/>
<path d="M36.6676 38.2299C36.6676 38.0855 36.6676 37.9411 36.6193 37.7966C36.6193 37.6522 36.5711 37.5077 36.5228 37.4114C36.4746 37.267 36.3781 37.1707 36.2816 37.1225C36.1851 37.0262 36.0403 37.0262 35.8474 37.0262C35.6544 37.0262 35.5096 37.0744 35.4131 37.1225C35.3166 37.2188 35.2201 37.3151 35.1719 37.4114C35.1236 37.5077 35.0754 37.6522 35.0271 37.7966C34.9789 37.9411 34.9789 38.0855 34.9789 38.2299C34.9789 38.3744 34.9789 38.5188 35.0271 38.6633C35.0271 38.8077 35.0754 38.9522 35.1719 39.0485C35.2201 39.1448 35.3166 39.2411 35.4131 39.2892C35.5096 39.3374 35.6544 39.3855 35.8474 39.3855C36.0403 39.3855 36.1368 39.3374 36.2816 39.2892C36.3781 39.2411 36.4746 39.1448 36.5228 39.0003C36.5711 38.904 36.6193 38.7596 36.6676 38.6151C36.6676 38.4707 36.7158 38.3262 36.7158 38.1818L36.6676 38.2299ZM37.1983 38.2299C37.1983 38.4225 37.1983 38.6151 37.1501 38.8077C37.1018 39.0003 37.0053 39.1929 36.9088 39.3374C36.8123 39.4818 36.6676 39.6263 36.4746 39.7225C36.2816 39.8188 36.0886 39.867 35.7991 39.867C35.5579 39.867 35.3166 39.8188 35.1719 39.7225C34.9789 39.6263 34.8824 39.53 34.7376 39.3855C34.6411 39.2411 34.5446 39.0966 34.4964 38.904C34.4482 38.7114 34.4482 38.5188 34.4482 38.2781C34.4482 38.0855 34.4964 37.8929 34.5446 37.6522C34.5929 37.4596 34.6894 37.267 34.7859 37.1225C34.8824 36.9781 35.0271 36.8336 35.2201 36.7373C35.4131 36.641 35.6061 36.5929 35.8474 36.5929C36.0886 36.5929 36.3298 36.641 36.4746 36.7373C36.6676 36.8336 36.7641 36.9299 36.9088 37.1225C37.0053 37.267 37.1018 37.4596 37.1501 37.6522C37.1983 37.8448 37.1983 38.0374 37.1983 38.2299Z" fill="black"/>
<path d="M39.1777 36.3039C39.0812 36.3039 38.9847 36.3039 38.8882 36.2558C38.7917 36.2076 38.6952 36.1595 38.5987 36.1113C38.5022 36.0632 38.454 35.9669 38.3575 35.8706C38.261 35.7743 38.2127 35.678 38.1645 35.6299L38.454 35.4373C38.5505 35.5817 38.6952 35.7261 38.84 35.8224C38.9847 35.9187 39.0812 35.9669 39.226 35.9669C39.2742 35.9669 39.3224 35.9669 39.3707 35.9669C39.4189 35.9669 39.5154 35.9187 39.5637 35.9187C39.6602 35.8706 39.7084 35.8224 39.8049 35.7743C39.9014 35.7261 39.9979 35.6299 40.1427 35.4854L40.3357 35.6299C40.1427 35.9187 39.9497 36.0632 39.7567 36.2076C39.5637 36.3039 39.3707 36.3521 39.226 36.3521L39.1777 36.3039ZM39.9014 39.7706V37.3632C39.9014 37.3632 39.8532 37.4595 39.7567 37.6039C39.6602 37.7484 39.5637 37.8928 39.4672 38.0854C39.3707 38.2299 39.226 38.4225 39.1295 38.6151C38.9847 38.8077 38.8882 39.0003 38.7917 39.1447C38.6952 39.2891 38.5987 39.4336 38.5022 39.578C38.4057 39.6743 38.4057 39.7706 38.3575 39.7706H37.875V36.6891H38.4057V39.0484H38.454C38.5022 38.9521 38.5505 38.904 38.5987 38.8077C38.647 38.7114 38.6952 38.6632 38.7435 38.5669C38.9365 38.2299 39.1295 37.9891 39.2742 37.7484C39.4189 37.5558 39.5154 37.3632 39.6119 37.2188C39.7084 37.0743 39.7567 36.978 39.8049 36.8817C39.8532 36.7854 39.9014 36.7373 39.9497 36.641H40.4322C40.4322 36.8336 40.4322 37.0743 40.4322 37.3632C40.4322 37.6521 40.4322 37.941 40.4322 38.2299C40.4322 38.5188 40.4322 38.8077 40.4322 39.0965C40.4322 39.3854 40.4322 39.6262 40.4322 39.8188H39.9014V39.7706Z" fill="black"/>
<path d="M44.7275 39.4818C44.9205 39.4818 45.1135 39.4336 45.2582 39.3855C45.403 39.3373 45.4995 39.241 45.5959 39.1447C45.6924 39.0485 45.7407 38.904 45.7889 38.7596C45.8372 38.6151 45.8372 38.4707 45.8372 38.2781C45.8372 38.1336 45.8372 37.941 45.7889 37.7966C45.7407 37.6521 45.6924 37.5077 45.5959 37.4114C45.4995 37.3151 45.403 37.2188 45.2582 37.1707C45.1135 37.1225 44.9205 37.0744 44.7275 37.0744V39.4818ZM44.245 37.0744C44.0038 37.0744 43.859 37.1225 43.7143 37.1707C43.5695 37.2188 43.473 37.3151 43.3765 37.4114C43.28 37.5077 43.2318 37.6521 43.1835 37.7966C43.1353 37.941 43.1353 38.0855 43.1353 38.2781C43.1353 38.4707 43.1353 38.6151 43.1835 38.7596C43.2318 38.904 43.28 39.0485 43.3765 39.1447C43.473 39.241 43.5695 39.3373 43.7143 39.3855C43.859 39.4336 44.052 39.4818 44.245 39.4818V37.0744ZM44.245 39.867C43.9555 39.867 43.666 39.8188 43.473 39.7225C43.28 39.6262 43.087 39.5299 42.9905 39.3855C42.8458 39.241 42.7975 39.0966 42.701 38.904C42.6528 38.7114 42.6046 38.5188 42.6046 38.3262C42.6046 38.0855 42.6528 37.8929 42.701 37.7003C42.7493 37.5077 42.8458 37.3151 42.9905 37.2188C43.1353 37.0744 43.28 36.9781 43.473 36.8818C43.666 36.7855 43.9073 36.7373 44.1967 36.7373V35.3892H44.6792V36.7373C44.9687 36.7373 45.21 36.7855 45.403 36.8818C45.5959 36.9781 45.7889 37.0744 45.9337 37.2188C46.0784 37.3633 46.1749 37.5077 46.2232 37.7003C46.2714 37.8929 46.3197 38.0855 46.3197 38.3262C46.3197 38.567 46.2714 38.7596 46.2232 38.9522C46.1749 39.1447 46.0784 39.2892 45.9337 39.4336C45.7889 39.5781 45.6442 39.6744 45.403 39.7707C45.21 39.867 44.9205 39.9151 44.631 39.9151V41.2151H44.1485V39.9151L44.245 39.867Z" fill="black"/>
<path d="M48.972 39.8189V37.4114C48.972 37.4114 48.9238 37.5077 48.8273 37.6522C48.7308 37.7966 48.6343 37.9411 48.5378 38.1337C48.4413 38.2781 48.2966 38.4707 48.2001 38.6633C48.0553 38.8559 47.9588 39.0485 47.8623 39.1929C47.7658 39.3374 47.6693 39.4818 47.5728 39.6263C47.4763 39.7226 47.4763 39.8189 47.4281 39.8189H46.9456V36.7374H47.4763V39.0966H47.5246C47.5728 39.0003 47.6211 38.9522 47.6693 38.8559C47.7176 38.7596 47.7658 38.7114 47.8141 38.6152C48.0071 38.2781 48.2001 38.0374 48.3448 37.7966C48.4896 37.604 48.5861 37.4114 48.6826 37.267C48.7791 37.1225 48.8273 37.0262 48.8756 36.93C48.9238 36.8337 48.972 36.7855 49.0203 36.6892H49.5028C49.5028 36.8818 49.5028 37.1225 49.5028 37.4114C49.5028 37.7003 49.5028 37.9892 49.5028 38.2781C49.5028 38.567 49.5028 38.8559 49.5028 39.1448C49.5028 39.4337 49.5028 39.6744 49.5028 39.867H48.972V39.8189Z" fill="black"/>
<path d="M51.1439 39.8671C50.9509 39.8671 50.7097 39.8671 50.5167 39.8189C50.3237 39.7708 50.1307 39.7226 50.0342 39.6745L50.1789 39.3374C50.3237 39.3856 50.5167 39.4337 50.6132 39.4819C50.7579 39.53 50.9026 39.53 51.0474 39.53C51.3369 39.53 51.5781 39.4819 51.7229 39.3856C51.8676 39.2893 51.9641 39.1449 51.9641 38.9041C51.9641 38.8078 51.9641 38.7115 51.9159 38.6634C51.8676 38.6152 51.8194 38.5189 51.7229 38.5189C51.6746 38.4708 51.5781 38.4708 51.4816 38.4226C51.3851 38.4226 51.3369 38.4226 51.2404 38.4226H50.7579V38.0856H51.1439C51.2404 38.0856 51.2886 38.0856 51.3851 38.0856C51.4816 38.0856 51.5299 38.0374 51.6264 37.9893C51.6746 37.9411 51.7711 37.893 51.8194 37.8448C51.8676 37.7967 51.8676 37.7004 51.8676 37.6041C51.8676 37.4597 51.8194 37.3634 51.7229 37.2671C51.6264 37.1708 51.4816 37.1226 51.2404 37.1226C51.1439 37.1226 50.9991 37.1226 50.8544 37.1226C50.7097 37.1226 50.5167 37.1708 50.2754 37.2671L50.1789 36.93C50.3237 36.8819 50.5167 36.7856 50.7097 36.7856C50.9026 36.7374 51.0956 36.7374 51.2886 36.7374C51.6264 36.7374 51.9159 36.7856 52.1089 36.93C52.3018 37.0745 52.3983 37.2671 52.3983 37.5078C52.3983 37.7004 52.3501 37.8448 52.2536 37.9411C52.1571 38.0374 52.0124 38.1337 51.8676 38.1819C52.0606 38.23 52.2054 38.3263 52.3018 38.4708C52.3983 38.6152 52.4948 38.7597 52.4948 38.9523C52.4948 39.1449 52.4466 39.2893 52.3983 39.3856C52.3018 39.53 52.2054 39.6263 52.1089 39.6745C51.9641 39.7708 51.8676 39.8189 51.6746 39.8671C51.5299 39.9152 51.3369 39.9152 51.1439 39.9152V39.8671Z" fill="black"/>
<path d="M55.1473 39.8189V37.4114C55.1473 37.4114 55.099 37.5077 55.0025 37.6522C54.906 37.7966 54.8095 37.9411 54.713 38.1337C54.6165 38.2781 54.4718 38.4707 54.3753 38.6633C54.2306 38.8559 54.1341 39.0485 54.0376 39.1929C53.9411 39.3374 53.8446 39.4818 53.7481 39.6263C53.6516 39.7226 53.6033 39.8189 53.6033 39.8189H53.1208V36.7374H53.6516V39.0966H53.6998C53.7481 39.0003 53.7963 38.9522 53.8446 38.8559C53.8928 38.7596 53.9411 38.7114 53.9893 38.6152C54.1823 38.2781 54.3753 38.0374 54.5201 37.7966C54.6648 37.604 54.7613 37.4114 54.8578 37.267C54.9543 37.1225 55.0025 37.0262 55.0508 36.93C55.099 36.8337 55.1473 36.7855 55.1955 36.6892H55.678C55.678 36.8818 55.678 37.1225 55.678 37.4114C55.678 37.7003 55.678 37.9892 55.678 38.2781C55.678 38.567 55.678 38.8559 55.678 39.1448C55.678 39.4337 55.678 39.6744 55.678 39.867H55.1473V39.8189Z" fill="black"/>
<path d="M56.451 39.8189V36.7374H56.9335V37.9893H57.5125C57.5608 37.9893 57.609 37.9893 57.7055 37.9893C57.7538 37.9893 57.802 37.9411 57.8985 37.9411C57.9467 37.893 57.995 37.8448 58.0432 37.7967C58.0915 37.7485 58.1397 37.6522 58.1397 37.556L58.381 36.7856H58.8635L58.6222 37.6522C58.5257 37.9411 58.381 38.1337 58.188 38.23C58.3327 38.2782 58.4292 38.3263 58.5257 38.4226C58.6222 38.5189 58.6705 38.6152 58.7187 38.7597L59.0565 39.8671H58.574L58.2845 38.856C58.2362 38.7597 58.188 38.6634 58.1397 38.6152C58.0915 38.5671 58.0432 38.5189 57.9467 38.4708C57.8985 38.4226 57.802 38.4226 57.7538 38.4226C57.7055 38.4226 57.609 38.4226 57.5608 38.4226H56.9818V39.9152H56.4993L56.451 39.8189Z" fill="black"/>
<path d="M61.5661 39.8189V37.4114C61.5661 37.4114 61.5179 37.5077 61.4214 37.6522C61.3249 37.7966 61.2284 37.9411 61.1319 38.1337C61.0354 38.2781 60.8906 38.4707 60.7941 38.6633C60.6494 38.8559 60.5529 39.0485 60.4564 39.1929C60.3599 39.3374 60.2634 39.4818 60.1669 39.6263C60.0704 39.7226 60.0222 39.8189 60.0222 39.8189H59.5397V36.7374H60.0704V39.0966H60.1187C60.1669 39.0003 60.2152 38.9522 60.2634 38.8559C60.3116 38.7596 60.3599 38.7114 60.4081 38.6152C60.6011 38.2781 60.7941 38.0374 60.9389 37.7966C61.0836 37.604 61.1801 37.4114 61.2766 37.267C61.3731 37.1225 61.4214 37.0262 61.4696 36.93C61.5179 36.8337 61.5661 36.7855 61.6144 36.6892H62.0968C62.0968 36.8818 62.0968 37.1225 62.0968 37.4114C62.0968 37.7003 62.0968 37.9892 62.0968 38.2781C62.0968 38.567 62.0968 38.8559 62.0968 39.1448C62.0968 39.4337 62.0968 39.6744 62.0968 39.867H61.5661V39.8189Z" fill="black"/>
<path d="M1.2536 44.5856V45.8856C1.2536 46.3671 1.2536 46.7041 1.20535 47.1374C1.39835 46.7523 1.49484 46.5597 1.68784 46.1745L2.6528 44.5856H3.32828V47.6671H2.79755V46.3671C2.79755 45.8856 2.79755 45.5967 2.8458 45.1152C2.6528 45.5004 2.50806 45.7411 2.31506 46.0782C2.02557 46.5597 1.68784 47.1374 1.3501 47.6671H0.72287V44.5856H1.2536Z" fill="black"/>
<path d="M5.64346 44.5856H6.31894L6.89792 46.1264C6.99442 46.3671 7.09091 46.7523 7.18741 46.993C7.23566 46.7523 7.42865 46.2708 7.5734 45.9338L8.05588 44.5856H8.73136L8.92435 47.6671H8.39362L8.34537 46.1745C8.34537 45.8375 8.29712 45.4523 8.29712 45.0671C8.20063 45.356 8.15238 45.5967 7.95938 46.0782L7.3804 47.619H6.99442L6.46369 46.0782C6.36719 45.7893 6.22244 45.356 6.1742 45.0671H6.12595C6.12595 45.4523 6.0777 45.8375 6.0777 46.1745L5.9812 47.619H5.45047L5.69171 44.5375L5.64346 44.5856Z" fill="black"/>
<path d="M11.2905 46.0782C10.6633 46.0782 9.98782 46.1745 9.98782 46.7523C9.98782 47.1375 10.2291 47.2819 10.5186 47.2819C10.9045 47.2819 11.194 47.0412 11.2423 46.7523C11.2423 46.7042 11.2905 46.6079 11.2905 46.5597V46.0301V46.0782ZM11.387 47.6671L11.3388 47.2819C11.1458 47.5227 10.8563 47.7634 10.3738 47.7634C9.74658 47.7634 9.40884 47.3301 9.40884 46.8968C9.40884 46.1745 10.0843 45.7412 11.2423 45.7412V45.693C11.2423 45.4523 11.194 44.9708 10.5186 44.9708C10.2291 44.9708 9.93958 45.0671 9.69833 45.2116L9.55359 44.8264C9.79483 44.6819 10.1808 44.5375 10.5668 44.5375C11.5318 44.5375 11.7248 45.1634 11.7248 45.7893V46.9449C11.7248 47.2338 11.7248 47.4745 11.773 47.6671H11.2423H11.387Z" fill="black"/>
<path d="M14.7648 44.5856V45.0189H13.7999V47.6189H13.2691V45.0189H12.3042V44.5856H14.7648Z" fill="black"/>
<path d="M17.1291 45.7893C17.1291 45.4522 16.9844 44.8744 16.3571 44.8744C15.7782 44.8744 15.5369 45.4041 15.4887 45.7893H17.1291ZM15.4887 46.1745C15.4887 46.9448 15.9712 47.2337 16.5501 47.2337C16.9361 47.2337 17.1774 47.1856 17.4186 47.0893L17.5151 47.4745C17.3221 47.5708 16.9844 47.6671 16.5019 47.6671C15.5369 47.6671 15.0062 47.0411 15.0062 46.1263C15.0062 45.2115 15.5369 44.4893 16.4536 44.4893C17.4669 44.4893 17.7081 45.3559 17.7081 45.9337C17.7081 46.03 17.7081 46.1263 17.7081 46.1745H15.5369H15.4887Z" fill="black"/>
<path d="M18.3825 44.5856H19.058L19.637 46.1264C19.7335 46.3671 19.83 46.7523 19.9265 46.993C19.9747 46.7523 20.1677 46.2708 20.3124 45.9338L20.7949 44.5856H21.4704L21.6634 47.6671H21.1327L21.0844 46.1745C21.0844 45.8375 21.0362 45.4523 21.0362 45.0671C20.9397 45.356 20.8914 45.5967 20.6984 46.0782L20.1194 47.619H19.7335L19.2027 46.0782C19.1062 45.7893 18.9615 45.356 18.9132 45.0671H18.865C18.865 45.4523 18.8167 45.8375 18.8167 46.1745L18.7202 47.619H18.1895L18.4308 44.5375L18.3825 44.5856Z" fill="black"/>
<path d="M24.0779 46.0782C23.4507 46.0782 22.7752 46.1745 22.7752 46.7523C22.7752 47.1375 23.0164 47.2819 23.3059 47.2819C23.6919 47.2819 23.9814 47.0412 24.0296 46.7523C24.0296 46.7042 24.0779 46.6079 24.0779 46.5597V46.0301V46.0782ZM24.1744 47.6671L24.1261 47.2819C23.9331 47.5227 23.6436 47.7634 23.1612 47.7634C22.5339 47.7634 22.1962 47.3301 22.1962 46.8968C22.1962 46.1745 22.8717 45.7412 24.0296 45.7412V45.693C24.0296 45.4523 23.9814 44.9708 23.3059 44.9708C23.0164 44.9708 22.7269 45.0671 22.4857 45.2116L22.3409 44.8264C22.5822 44.6819 22.9682 44.5375 23.3542 44.5375C24.3191 44.5375 24.5121 45.1634 24.5121 45.7893V46.9449C24.5121 47.2338 24.5121 47.4745 24.5604 47.6671H24.0296H24.1744Z" fill="black"/>
<path d="M27.5502 44.5856V45.0189H26.5852V47.6189H26.0062V45.0189H25.0413V44.5856H27.5502Z" fill="black"/>
<path d="M28.564 44.5856V45.8856C28.564 46.3671 28.564 46.7041 28.5157 47.1374C28.7087 46.7523 28.8052 46.5597 28.9982 46.1745L29.9632 44.5856H30.6386V47.6671H30.1079V46.3671C30.1079 45.8856 30.1079 45.5967 30.1562 45.1152C29.9632 45.5004 29.8184 45.7411 29.6254 46.0782C29.3359 46.5597 28.9982 47.1374 28.6605 47.6671H28.0332V44.5856H28.564Z" fill="black"/>
<path d="M32.0856 44.5856V45.9337H32.2303L33.3883 44.5856H34.0638L32.7128 45.9819C33.1953 46.03 33.533 46.3671 33.7743 46.8967C33.8708 47.0893 33.9673 47.3782 34.112 47.6671H33.533C33.4365 47.5226 33.34 47.2819 33.2435 47.0411C33.0505 46.5597 32.761 46.3189 32.2303 46.3189H32.1338V47.6671H31.6031V44.5856H32.1338H32.0856Z" fill="black"/>
<path d="M35.1238 44.5856V45.8856C35.1238 46.3671 35.1238 46.7041 35.0756 47.1374C35.2686 46.7523 35.3651 46.5597 35.5581 46.1745L36.523 44.5856H37.1985V47.6671H36.6678V46.3671C36.6678 45.8856 36.6678 45.5967 36.716 45.1152C36.523 45.5004 36.3783 45.7411 36.1853 46.0782C35.8958 46.5597 35.5581 47.1374 35.2203 47.6671H34.5931V44.5856H35.1238Z" fill="black"/>
</g>
<defs>
<clipPath id="clip0_2223_2923">
<rect width="95" height="48" fill="white"/>
</clipPath>
</defs>
</svg>
