<svg width="95" height="9" viewBox="0 0 95 9" fill="none" xmlns="http://www.w3.org/2000/svg">
<g clip-path="url(#clip0_2223_2975)">
<path d="M11.1152 0.506104V8.45762H12.7854V2.09587H17.7973V8.45616H19.4675V0.506104H11.1139H11.1152Z" fill="black"/>
<path d="M21.8354 0.506104V1.99733H25.4905V8.45762H27.0572V1.99733H30.712V0.506104H21.8369H21.8354Z" fill="black"/>
<path d="M41.4991 0.506104H33.0769V8.45762H40.908V6.96637H34.7121L41.4991 0.506104ZM34.6438 1.99733H37.706L34.6438 4.91207V1.99733Z" fill="black"/>
<path d="M43.8668 0.506104V8.45762H52.2205V6.96613H45.4337V0.506104H43.8668Z" fill="black"/>
<path d="M54.3252 0.506104V8.45762H62.6791V6.96613H55.8921V0.506104H54.3252Z" fill="black"/>
<path d="M73.206 0.506104H64.7839V8.45762H72.6146V6.96637H66.419L73.206 0.506104ZM66.3507 1.99733H69.4126L66.3507 4.91207V1.99733Z" fill="black"/>
<path d="M75.5736 0.506104V8.45762H83.9275V6.96613H77.1405V1.99733H83.9275V0.506104H75.5736Z" fill="black"/>
<path d="M86.1026 0.506104V1.99733H89.7574V8.45762H91.3243V1.99733H94.9791V0.506104H86.1041H86.1026Z" fill="black"/>
<path d="M0.0256042 8.45761V6.96637H3.68045V0.506104H5.2474V6.96637H8.90222V8.45761H0.0271357H0.0256042Z" fill="black"/>
</g>
<defs>
<clipPath id="clip0_2223_2975">
<rect width="95" height="8" fill="white" transform="translate(0 0.5)"/>
</clipPath>
</defs>
</svg>
