<svg width="48" height="48" viewBox="0 0 48 48" fill="none" xmlns="http://www.w3.org/2000/svg">
<path d="M21.9492 3.3649C21.9326 3.34721 21.921 3.3255 21.9158 3.30199C21.9105 3.27848 21.9117 3.25402 21.9193 3.23112C21.9268 3.20822 21.9404 3.1877 21.9587 3.17168C21.977 3.15565 21.9993 3.14469 22.0233 3.13992L23.0978 2.93148C23.1182 2.92769 23.1376 2.91949 23.1545 2.90748C23.1714 2.89547 23.1854 2.87994 23.1954 2.86201L23.7175 1.91578C23.7296 1.89517 23.7471 1.87805 23.7681 1.86616C23.789 1.85426 23.8128 1.848 23.8371 1.848C23.8613 1.848 23.8851 1.85426 23.9061 1.86616C23.9271 1.87805 23.9445 1.89517 23.9567 1.91578L24.4922 2.85539C24.5021 2.87282 24.5156 2.88801 24.5318 2.89998C24.5481 2.91195 24.5667 2.92043 24.5865 2.92487L25.6643 3.12007C25.6884 3.12484 25.7107 3.1358 25.7289 3.15183C25.7472 3.16785 25.7608 3.18837 25.7684 3.21127C25.7759 3.23417 25.7771 3.25863 25.7719 3.28214C25.7666 3.30565 25.7551 3.32736 25.7385 3.34504L24.9941 4.13246C24.9807 4.14723 24.9705 4.16454 24.9641 4.18331C24.9577 4.20208 24.9553 4.22193 24.957 4.24165L25.1019 5.31029C25.1047 5.33427 25.1011 5.35857 25.0912 5.38069C25.0813 5.40281 25.0656 5.42194 25.0457 5.43611C25.0258 5.45027 25.0024 5.45896 24.9779 5.46126C24.9534 5.46357 24.9288 5.45943 24.9065 5.44924L23.896 4.99929C23.878 4.98944 23.8577 4.98427 23.8371 4.98427C23.8165 4.98427 23.7962 4.98944 23.7781 4.99929L22.7912 5.46248C22.7688 5.4735 22.7438 5.47832 22.7188 5.47641C22.6938 5.47451 22.6698 5.46596 22.6494 5.45168C22.6289 5.4374 22.6129 5.41792 22.6028 5.39535C22.5928 5.37277 22.5893 5.34794 22.5925 5.32352L22.7239 4.25488C22.727 4.2351 22.7253 4.21487 22.7188 4.19588C22.7124 4.17689 22.7014 4.15969 22.6868 4.1457L21.9492 3.3649ZM10.029 34.7029C9.9913 34.5544 9.9081 34.4208 9.79065 34.3202C9.67319 34.2196 9.52713 34.1569 9.37221 34.1404C9.54399 33.7765 9.80334 33.0486 9.43957 32.5061C9.13643 32.0528 8.52342 32.1752 8.22028 32.2546C8.09388 31.8996 7.851 31.5958 7.52979 31.3911C7.40768 31.3279 7.27229 31.2936 7.13432 31.2907C6.99636 31.2878 6.8596 31.3165 6.73488 31.3746C6.60369 31.4253 6.4857 31.5043 6.38954 31.6056C6.29339 31.7069 6.2215 31.828 6.17913 31.9602C6.08705 32.3315 6.11772 32.722 6.2667 33.0751C5.98714 33.2273 5.47517 33.5912 5.56274 34.1371C5.66716 34.7988 6.34417 35.1297 6.71468 35.2587C6.61494 35.38 6.55325 35.5271 6.5371 35.6822C6.52095 35.8372 6.55105 35.9936 6.62373 36.1322C6.85699 36.4437 7.20294 36.6557 7.59042 36.7244C7.59042 36.86 8.29774 38.2165 9.24085 37.8228C10.184 37.4291 9.81682 35.9237 9.71914 35.8377C9.96032 35.5094 10.0706 35.1057 10.029 34.7029ZM21.481 20.9727L21.4541 16.1357H22.6835C22.6835 16.1357 22.6835 13.6477 22.6835 13.0952C22.6835 12.3905 23.64 12.2515 23.64 12.2515L23.4278 11.2589L23.8118 6.49473C23.8152 6.48011 23.8236 6.46705 23.8355 6.4577C23.8474 6.44835 23.8622 6.44326 23.8775 6.44326C23.8928 6.44326 23.9076 6.44835 23.9195 6.4577C23.9314 6.46705 23.9398 6.48011 23.9432 6.49473L24.3811 11.2523L24.179 12.2449C24.179 12.2449 25.1423 12.3706 25.1456 13.0753C25.1456 13.6245 25.1456 16.1158 25.1456 16.1158H26.375L26.4054 20.9528L28.8709 22.1472L28.908 28.1918L35.0583 28.1554L36.2878 26.9379V24.5194L37.5104 23.3052H38.7398L39.9793 24.5061L40.0096 30.1041L39.9052 30.157C39.6055 30.3219 39.3449 30.5475 39.1406 30.8187C38.8244 30.8337 38.5163 30.9222 38.2417 31.0769C37.9671 31.2317 37.7338 31.4482 37.5609 31.7087C37.2221 32.2407 37.1017 32.8794 37.2241 33.4953C37.0282 33.7287 36.8909 34.0041 36.8233 34.2993C36.773 34.5274 36.7605 34.762 36.7862 34.994C36.6399 34.935 36.4874 34.8918 36.3315 34.865L36.3046 30.564H35.0752L35.1021 35.0238C34.8256 35.149 34.5754 35.3241 34.3645 35.5399H34.2331C34.1099 35.5291 33.9859 35.5291 33.8626 35.5399L33.8323 30.5408H32.6029L32.6332 36.2579C32.2879 36.7051 32.1096 37.2552 32.128 37.8162L27.7324 37.8427L27.7021 33.0056V31.798H26.4727H25.2063C25.2063 31.798 25.8395 31.4473 26.2976 29.9486C26.3087 29.9149 26.3099 29.8789 26.3011 29.8445C26.2923 29.8102 26.2738 29.779 26.2478 29.7545C26.2218 29.73 26.1893 29.7132 26.154 29.706C26.1188 29.6987 26.0821 29.7014 26.0483 29.7137C25.1726 30.0445 23.9903 29.138 23.9903 29.138C23.9903 29.138 22.8182 30.0445 21.9391 29.7369C21.905 29.7255 21.8684 29.7237 21.8334 29.7315C21.7983 29.7393 21.7661 29.7565 21.7403 29.7811C21.7146 29.8057 21.6962 29.8369 21.6873 29.8711C21.6784 29.9053 21.6793 29.9413 21.6898 29.9751C22.1648 31.4672 22.8047 31.8113 22.8047 31.8113H21.5416H20.3089V33.0222L20.3358 37.8559L15.9571 37.879C15.9693 37.3178 15.7837 36.7696 15.4317 36.3274L15.4013 30.6103H14.1686L14.1989 35.6094C14.0799 35.589 13.9592 35.5801 13.8385 35.583H13.7071C13.4926 35.3709 13.2403 35.1993 12.9627 35.0768L12.9392 30.6169H11.7064L11.73 34.9179C11.5736 34.9459 11.421 34.9914 11.2753 35.0536C11.3004 34.8212 11.2856 34.5864 11.2315 34.3588C11.161 34.0637 11.0202 33.7893 10.8205 33.5582C10.9441 32.9433 10.8236 32.3053 10.4837 31.7749C10.3068 31.5172 10.0708 31.3039 9.79469 31.1522C9.51856 31.0005 9.21003 30.9146 8.89392 30.9014C8.68762 30.6295 8.42467 30.4039 8.1226 30.2397L8.01818 30.1901L7.9845 24.5888L9.21053 23.3746H10.4399L11.6761 24.5756V26.9941L12.9122 28.2613L19.066 28.2282L19.0424 22.1935L21.481 20.9727ZM10.7027 26.6732C10.702 26.5018 10.6496 26.3344 10.5521 26.1922C10.4545 26.05 10.3163 25.9394 10.1548 25.8744C9.99328 25.8094 9.81578 25.7929 9.64472 25.827C9.47367 25.8611 9.31675 25.9442 9.19381 26.0659C9.07087 26.1876 8.98742 26.3424 8.95402 26.5106C8.92062 26.6789 8.93878 26.8531 9.00618 27.0113C9.07359 27.1694 9.18722 27.3044 9.33271 27.3991C9.4782 27.4938 9.64902 27.544 9.82355 27.5433C10.0562 27.5399 10.278 27.4466 10.4412 27.2838C10.6045 27.121 10.696 26.9017 10.6959 26.6732H10.7027ZM17.9006 36.6847L17.8669 30.6434H16.6375L16.6712 36.6847H17.9006ZM37.2679 26.5243C37.2686 26.6957 37.321 26.8631 37.4185 27.0053C37.516 27.1475 37.6543 27.2581 37.8158 27.3231C37.9773 27.3881 38.1548 27.4046 38.3258 27.3705C38.4969 27.3364 38.6538 27.2533 38.7768 27.1316C38.8997 27.0099 38.9832 26.8551 39.0165 26.6869C39.0499 26.5186 39.0318 26.3444 38.9644 26.1862C38.897 26.0281 38.7833 25.8931 38.6379 25.7984C38.4924 25.7037 38.3215 25.6535 38.147 25.6542C38.0306 25.6537 37.9152 25.6759 37.8075 25.7195C37.6998 25.7631 37.602 25.8272 37.5196 25.9081C37.4373 25.9889 37.3721 26.085 37.3277 26.1908C37.2833 26.2966 37.2607 26.4099 37.2612 26.5243H37.2679ZM30.1576 30.5772L30.1946 36.6152H31.424L31.3903 30.5772H30.1576ZM25.2063 23.3449L25.2332 28.1819H26.466L26.439 23.3449H25.2063ZM22.8721 18.531C22.9093 18.9602 23.1045 19.3613 23.4211 19.6592C23.4453 19.6876 23.4612 19.722 23.4668 19.7587C23.4724 19.7953 23.4677 19.8328 23.4531 19.867C23.4385 19.9012 23.4145 19.9307 23.3839 19.9524C23.3534 19.9742 23.3173 19.9872 23.2796 19.99H22.8687V21.0355H24.9974V19.99H24.5899C24.5514 19.989 24.514 19.9771 24.4821 19.9558C24.4502 19.9346 24.4252 19.9048 24.41 19.87C24.3947 19.8353 24.3899 19.7969 24.3962 19.7596C24.4024 19.7222 24.4193 19.6874 24.445 19.6592C24.7577 19.3606 24.9503 18.9612 24.9873 18.5343C25.0379 17.7171 24.5933 17.5715 24.3474 17.5418C24.1015 17.512 24.3103 17.8263 24.4754 17.9719C24.6404 18.1174 24.2025 18.1704 23.923 18.1737C23.6434 18.177 23.2055 18.1274 23.3706 17.9785C23.5356 17.8296 23.7377 17.4954 23.4918 17.5451C23.246 17.5947 22.7946 17.7138 22.8552 18.531H22.8721ZM21.5248 23.3647L21.5517 28.2017H22.7845L22.7475 23.3581L21.5248 23.3647ZM33.4551 3.28218C33.6979 3.89004 34.0391 4.45535 34.4655 4.95628C34.7394 5.27734 35.0427 5.57304 35.3716 5.83965C35.3862 5.8492 35.403 5.85508 35.4205 5.8568C35.438 5.85851 35.4557 5.85599 35.4719 5.84947C35.4882 5.84294 35.5026 5.83261 35.5139 5.81936C35.5252 5.80612 35.533 5.79036 35.5366 5.77348C35.595 5.35369 35.6142 4.92954 35.5939 4.50632C35.5596 3.17981 35.0572 1.90621 34.1725 0.903381C33.8986 0.582317 33.5953 0.286621 33.2664 0.0200146C33.252 0.00958059 33.2351 0.00295988 33.2174 0.000786713C33.1996 -0.00138645 33.1816 0.000960643 33.165 0.00760451C33.1484 0.0142484 33.1339 0.0249658 33.1228 0.0387263C33.1116 0.0524869 33.1043 0.0688291 33.1014 0.0861846C33.043 0.50597 33.0239 0.93012 33.0441 1.35333C33.0665 2.01229 33.1962 2.66348 33.4281 3.28218H33.4551ZM20.356 39.1098L27.7425 39.0701L26.503 37.8559L26.4525 33.0619H25.2332L25.2602 37.8691H22.798L22.771 33.0619H21.5517L21.5787 37.8691L20.356 39.1098ZM29.9622 3.98689C30.9956 4.43069 32.1153 4.64749 33.2429 4.62212C33.2595 4.62171 33.2756 4.61667 33.2894 4.6076C33.3031 4.59853 33.314 4.5858 33.3207 4.57089C33.3274 4.55599 33.3297 4.53952 33.3272 4.5234C33.3248 4.50728 33.3177 4.49218 33.3069 4.47986C32.5769 3.62504 31.6682 2.93449 30.6426 2.45506C29.6079 2.0116 28.4872 1.79484 27.3586 1.81983C27.342 1.821 27.326 1.82662 27.3124 1.83609C27.2988 1.84555 27.2882 1.8585 27.2815 1.87352C27.2749 1.88854 27.2727 1.90505 27.275 1.92126C27.2773 1.93746 27.284 1.95273 27.2946 1.96541C28.0264 2.8188 28.9361 3.50812 29.9622 3.98689ZM33.4315 5.83303C32.7891 5.6947 32.1275 5.66338 31.4745 5.74039C31.0555 5.78658 30.6417 5.87076 30.2384 5.99184C30.2222 5.99898 30.2079 6.00973 30.1967 6.02322C30.1855 6.03672 30.1776 6.0526 30.1736 6.0696C30.1697 6.08661 30.1699 6.10428 30.1741 6.12121C30.1783 6.13815 30.1865 6.15389 30.198 6.16719C30.5097 6.45251 30.848 6.70839 31.2085 6.93145C32.3145 7.65472 33.6501 7.9592 34.9674 7.78835C35.3865 7.74215 35.8003 7.65798 36.2035 7.5369C36.2197 7.52975 36.234 7.51901 36.2453 7.50551C36.2565 7.49202 36.2644 7.47614 36.2683 7.45913C36.2722 7.44213 36.2721 7.42446 36.2678 7.40752C36.2636 7.39059 36.2554 7.37485 36.244 7.36155C35.9323 7.07622 35.594 6.82034 35.2335 6.59729C34.6804 6.24573 34.0713 5.98742 33.4315 5.83303ZM44.7656 24.9528C44.7419 24.5067 44.6765 24.0637 44.5702 23.6294C44.4092 22.9507 44.1386 22.3017 43.7686 21.7072C43.3881 21.125 42.9124 20.6086 42.3607 20.1786C42.0102 19.9009 41.6348 19.6551 41.239 19.4441C41.2218 19.4371 41.203 19.4344 41.1844 19.4361C41.1657 19.4379 41.1478 19.4441 41.1322 19.4542C41.1166 19.4643 41.1037 19.478 41.0948 19.4942C41.0858 19.5103 41.081 19.5283 41.0807 19.5467C41.106 19.9928 41.1726 20.4358 41.2795 20.8701C41.5782 22.2406 42.3594 23.4637 43.4857 24.3242C43.837 24.6007 44.2123 24.8465 44.6073 25.0587C44.6248 25.0658 44.6439 25.0685 44.6628 25.0666C44.6817 25.0647 44.6998 25.0582 44.7155 25.0477C44.7312 25.0372 44.744 25.023 44.7528 25.0065C44.7615 24.9899 44.7659 24.9714 44.7656 24.9528ZM41.0336 17.866C41.5341 18.2951 42.1031 18.6405 42.7177 18.8883C43.1104 19.0488 43.5175 19.1728 43.9336 19.2589C43.9512 19.2611 43.969 19.259 43.9856 19.2529C44.0021 19.2467 44.0169 19.2367 44.0285 19.2236C44.0402 19.2105 44.0484 19.1948 44.0524 19.1779C44.0564 19.161 44.0561 19.1433 44.0515 19.1265C43.9111 18.7246 43.7341 18.336 43.5227 17.9653C43.201 17.3882 42.7845 16.8672 42.2899 16.4235C41.7915 15.9916 41.222 15.6459 40.6058 15.4012C40.2148 15.2386 39.8087 15.1134 39.3933 15.0273C39.3755 15.0257 39.3577 15.0283 39.3412 15.0349C39.3247 15.0415 39.3101 15.0519 39.2986 15.0652C39.287 15.0784 39.2789 15.0943 39.2748 15.1113C39.2708 15.1283 39.271 15.146 39.2754 15.163C39.4149 15.5647 39.5907 15.9533 39.8008 16.3242C40.1224 16.9053 40.5389 17.4306 41.0336 17.8792V17.866ZM43.3307 31.3183C43.4857 30.8752 43.5985 30.4188 43.6675 29.9552C43.9044 28.5058 43.6248 27.0205 42.876 25.7501C42.6456 25.3446 42.3784 24.9604 42.0777 24.6021C42.0642 24.5879 42.0472 24.5773 42.0283 24.5713C42.0095 24.5653 41.9894 24.564 41.9699 24.5676C41.9504 24.5713 41.9322 24.5797 41.9169 24.592C41.9016 24.6044 41.8897 24.6204 41.8824 24.6385C41.729 25.0821 41.6163 25.5383 41.5456 26.0016C41.3092 27.4499 41.5888 28.934 42.3371 30.2033C42.5682 30.6102 42.8365 30.9956 43.1387 31.3547C43.1514 31.3686 43.1673 31.3793 43.1851 31.3858C43.2029 31.3924 43.222 31.3946 43.2409 31.3923C43.2597 31.3901 43.2777 31.3833 43.2934 31.3728C43.309 31.3622 43.3218 31.348 43.3307 31.3315V31.3183ZM42.4786 33.9188C42.5594 33.3729 42.0441 33.0156 41.7611 32.8667C41.9077 32.5116 41.9348 32.1197 41.8386 31.7484C41.7945 31.6168 41.7207 31.4966 41.6227 31.397C41.5248 31.2973 41.4051 31.2206 41.2727 31.1727C41.1483 31.115 41.0117 31.087 40.8741 31.091C40.7366 31.095 40.6019 31.131 40.4812 31.1959C40.1658 31.4058 39.9292 31.7114 39.8075 32.066C39.5044 31.98 38.888 31.8741 38.5883 32.334C38.2312 32.8766 38.4973 33.6012 38.6758 33.9684C38.5215 33.9859 38.3764 34.0495 38.2601 34.1507C38.1438 34.2519 38.062 34.3858 38.0258 34.5342C37.9881 34.9284 38.0957 35.3228 38.3289 35.6458C38.2312 35.7418 37.8809 37.2438 38.8308 37.6309C39.7806 38.018 40.4745 36.6549 40.4644 36.5159H40.4846C40.8682 36.4404 41.2086 36.2253 41.4378 35.9138C41.5091 35.7741 41.5371 35.6169 41.5186 35.4617C41.5 35.3065 41.4356 35.1601 41.3334 35.0404C41.7072 34.9246 42.3809 34.5838 42.4786 33.932V33.9188ZM45.3315 26.1968C45.0258 26.8373 44.8279 27.5222 44.7454 28.2249C44.6881 28.6769 44.6712 29.133 44.6949 29.588C44.6972 29.6064 44.7043 29.6241 44.7153 29.6392C44.7263 29.6544 44.741 29.6666 44.7581 29.6748C44.7751 29.683 44.7939 29.6869 44.8129 29.6862C44.8318 29.6855 44.8503 29.6801 44.8666 29.6707C45.243 29.415 45.5937 29.1248 45.9142 28.8039C46.4217 28.308 46.8428 27.7335 47.1604 27.1033C47.4669 26.4629 47.666 25.778 47.7498 25.0752C47.8064 24.6231 47.8222 24.1669 47.797 23.7121C47.7951 23.6933 47.7884 23.6753 47.7776 23.6598C47.7668 23.6442 47.7522 23.6315 47.735 23.623C47.7179 23.6144 47.6989 23.6102 47.6797 23.6107C47.6605 23.6113 47.6418 23.6166 47.6252 23.6261C47.2497 23.8828 46.899 24.173 46.5777 24.4929C46.0689 24.994 45.6479 25.5742 45.3315 26.21V26.1968ZM45.419 20.6352C45.2425 21.293 45.1754 21.9745 45.2203 22.6534C45.2446 23.0896 45.31 23.5226 45.4157 23.947C45.4207 23.9642 45.4301 23.9798 45.443 23.9924C45.4559 24.0051 45.4718 24.0143 45.4893 24.0192C45.5068 24.0242 45.5253 24.0247 45.543 24.0208C45.5608 24.0168 45.5772 24.0085 45.5908 23.9966C45.8996 23.6916 46.1792 23.3593 46.4261 23.0041C47.2258 21.8843 47.6056 20.5268 47.5006 19.1629C47.4752 18.7259 47.4109 18.292 47.3086 17.866C47.3024 17.8493 47.2922 17.8343 47.2789 17.8222C47.2657 17.8101 47.2497 17.8013 47.2322 17.7964C47.2148 17.7916 47.1965 17.7909 47.1787 17.7943C47.161 17.7978 47.1443 17.8053 47.1301 17.8164C46.8218 18.1219 46.5422 18.4541 46.2948 18.8089C45.9026 19.3722 45.6068 19.9947 45.419 20.6517V20.6352ZM36.5202 8.92646C35.8685 8.78836 35.1978 8.75928 34.5363 8.84044C34.1111 8.88844 33.6916 8.97595 33.2833 9.10181C33.2665 9.10882 33.2517 9.11965 33.24 9.13341C33.2284 9.14717 33.2203 9.16346 33.2163 9.18093C33.2124 9.1984 33.2127 9.21655 33.2173 9.23386C33.2219 9.25117 33.2307 9.26715 33.2429 9.28047C33.5604 9.57195 33.9042 9.8344 34.2702 10.0646C34.8344 10.418 35.4549 10.6763 36.1059 10.8288C36.7575 10.9669 37.4282 10.996 38.0898 10.9149C38.5149 10.8669 38.9344 10.7794 39.3427 10.6535C39.3595 10.6469 39.3743 10.6365 39.386 10.623C39.3977 10.6095 39.4059 10.5935 39.4098 10.5762C39.4138 10.559 39.4135 10.5411 39.4088 10.524C39.4042 10.5069 39.3954 10.4912 39.3832 10.4781C39.0722 10.19 38.7338 9.93191 38.3727 9.70727C37.8051 9.34502 37.1785 9.08094 36.5202 8.92646ZM40.2623 10.3127C40.4547 10.6896 40.6801 11.0494 40.9359 11.388C40.9478 11.4011 40.9629 11.4111 40.9798 11.4171C40.9966 11.4231 41.0147 11.4249 41.0325 11.4222C41.0502 11.4196 41.067 11.4127 41.0813 11.4021C41.0956 11.3915 41.107 11.3775 41.1144 11.3615C41.2697 10.96 41.3891 10.546 41.4715 10.1241C41.6018 9.47023 41.6245 8.80002 41.5388 8.13904C41.4436 7.48031 41.2399 6.84116 40.9359 6.24659C40.7463 5.86396 40.5208 5.49955 40.2623 5.1581C40.2506 5.14484 40.2357 5.13464 40.219 5.12841C40.2024 5.12218 40.1844 5.12012 40.1667 5.12242C40.149 5.12471 40.1321 5.13129 40.1176 5.14156C40.1032 5.15183 40.0915 5.16547 40.0837 5.18125C39.9224 5.58441 39.7973 6.00066 39.7099 6.42525C39.5813 7.07935 39.5586 7.74928 39.6425 8.41034C39.744 9.07299 39.9532 9.71531 40.2623 10.3127ZM37.4835 7.86775C37.7267 8.23835 38.0029 8.5871 38.3087 8.90992C38.3227 8.92171 38.3394 8.93001 38.3574 8.93409C38.3754 8.93818 38.3941 8.93793 38.4119 8.93338C38.4298 8.92884 38.4463 8.92012 38.46 8.90797C38.4737 8.89582 38.4842 8.8806 38.4906 8.8636C38.6074 8.43015 38.684 7.98722 38.7196 7.54021C38.855 6.15266 38.498 4.76178 37.7091 3.60311C37.4699 3.23649 37.197 2.89208 36.894 2.57417C36.8807 2.56146 36.8642 2.55235 36.8463 2.54773C36.8283 2.54311 36.8094 2.54313 36.7915 2.54779C36.7735 2.55245 36.7571 2.5616 36.7438 2.57433C36.7304 2.58707 36.7207 2.60297 36.7155 2.62049C36.5981 3.05381 36.5215 3.4968 36.4865 3.94388C36.4254 4.63356 36.4777 5.32841 36.6414 6.00176C36.8169 6.66403 37.1001 7.29413 37.4801 7.86775H37.4835ZM44.3547 17.4127C44.4185 17.8335 44.5211 18.2476 44.6612 18.6501C44.6681 18.666 44.6789 18.6799 44.6926 18.6908C44.7063 18.7016 44.7225 18.709 44.7398 18.7122C44.7571 18.7155 44.7749 18.7146 44.7917 18.7095C44.8086 18.7044 44.8239 18.6954 44.8363 18.6832C45.1085 18.3547 45.3498 18.0025 45.5571 17.6311C46.2261 16.469 46.4642 15.115 46.2308 13.7999C46.1668 13.3781 46.0642 12.9628 45.9243 12.5592C45.917 12.5436 45.9059 12.5299 45.892 12.5194C45.8782 12.5089 45.8619 12.5019 45.8447 12.499C45.8274 12.4961 45.8097 12.4973 45.7931 12.5026C45.7764 12.5079 45.7613 12.5171 45.7491 12.5294C45.4771 12.8569 45.2358 13.2079 45.0283 13.5782C44.3575 14.7409 44.1137 16.0946 44.3378 17.4127H44.3547ZM43.2937 14.5476C43.3035 14.5619 43.3168 14.5736 43.3324 14.5818C43.348 14.5899 43.3653 14.5941 43.3829 14.5941C43.4005 14.5941 43.4179 14.5899 43.4334 14.5818C43.449 14.5736 43.4623 14.5619 43.4722 14.5476C43.6797 14.1726 43.8511 13.7794 43.9842 13.3731C44.4278 12.1182 44.4195 10.7517 43.9606 9.50214C43.8196 9.10312 43.6438 8.7168 43.4351 8.34748C43.4253 8.33315 43.412 8.32142 43.3964 8.31331C43.3808 8.30519 43.3635 8.30095 43.3459 8.30095C43.3283 8.30095 43.3109 8.30519 43.2954 8.31331C43.2798 8.32142 43.2665 8.33315 43.2566 8.34748C43.0498 8.71822 42.8785 9.10697 42.7446 9.50876C42.2965 10.7629 42.3049 12.1309 42.7682 13.3797C42.907 13.7838 43.0829 14.1747 43.2937 14.5476ZM38.1807 11.8379C37.7597 11.8087 37.3369 11.8176 36.9176 11.8644C36.9001 11.8681 36.8836 11.8758 36.8698 11.8871C36.856 11.8983 36.8451 11.9127 36.8382 11.9289C36.8312 11.9452 36.8284 11.9629 36.8299 11.9804C36.8314 11.998 36.8372 12.0149 36.8469 12.0298C37.104 12.3656 37.3915 12.6778 37.7058 12.9628C38.6625 13.8712 39.9205 14.4104 41.2492 14.4814C41.6701 14.5107 42.0929 14.5018 42.5122 14.4549C42.5298 14.4513 42.5462 14.4435 42.56 14.4323C42.5739 14.421 42.5847 14.4067 42.5917 14.3904C42.5986 14.3742 42.6015 14.3565 42.6 14.3389C42.5984 14.3213 42.5926 14.3044 42.583 14.2895C42.325 13.9595 42.0376 13.6528 41.7241 13.3731C41.2432 12.9276 40.69 12.5641 40.0871 12.2978C39.4826 12.0399 38.838 11.8844 38.1807 11.8379ZM11.5346 7.67255C11.9405 7.78941 12.3566 7.86916 12.7775 7.91076C14.0957 8.06546 15.4263 7.74576 16.523 7.01085C16.8843 6.7852 17.2227 6.52594 17.5334 6.23666C17.5449 6.22336 17.5531 6.20763 17.5573 6.19069C17.5615 6.17376 17.5617 6.15609 17.5578 6.13908C17.5539 6.12208 17.546 6.1062 17.5347 6.0927C17.5235 6.07921 17.5092 6.06846 17.493 6.06131C17.0883 5.94435 16.6733 5.8646 16.2535 5.8231C14.9309 5.66633 13.5954 5.98607 12.4946 6.72301C12.134 6.94976 11.7958 7.20894 11.4841 7.4972C11.4721 7.51087 11.4637 7.52726 11.4597 7.54489C11.4558 7.56253 11.4563 7.58085 11.4613 7.59822C11.4663 7.6156 11.4756 7.63149 11.4884 7.64446C11.5012 7.65743 11.5171 7.66708 11.5346 7.67255ZM8.72551 40.7773C9.04212 39.8211 7.65104 39.1032 7.51631 39.123V39.1032C7.41549 38.7173 7.17629 38.3802 6.84267 38.1536C6.70412 38.0841 6.5472 38.0579 6.39303 38.0786C6.23886 38.0993 6.09485 38.1659 5.9804 38.2694C5.81536 37.9022 5.43138 37.2306 4.77794 37.1412C4.22555 37.0685 3.90894 37.5945 3.76747 37.879C3.41352 37.736 3.02089 37.7138 2.65259 37.8162C2.52323 37.8645 2.4073 37.9421 2.31424 38.0427C2.22118 38.1433 2.15361 38.2641 2.11704 38.3952C2.07218 38.524 2.05647 38.6609 2.07102 38.7964C2.08556 38.9318 2.13 39.0625 2.20125 39.1793C2.4278 39.4894 2.74852 39.721 3.1174 39.841C3.05004 40.1487 2.98604 40.764 3.45423 41.0618C4.02009 41.4092 4.72068 41.1313 5.07098 40.946C5.09594 41.1026 5.16694 41.2487 5.27524 41.3663C5.38354 41.4838 5.52444 41.5677 5.68063 41.6077C6.07167 41.6356 6.45902 41.5174 6.7652 41.2769H6.78204C6.91677 41.3662 8.40553 41.7367 8.72551 40.7773ZM1.49055 23.2423C1.7412 23.5976 2.02417 23.9298 2.33597 24.2348C2.3499 24.2466 2.36658 24.2548 2.38453 24.2587C2.40248 24.2627 2.42114 24.2621 2.43883 24.2572C2.45652 24.2523 2.47269 24.2431 2.48589 24.2306C2.4991 24.218 2.50892 24.2024 2.51449 24.1852C2.61061 23.7585 2.67032 23.3247 2.69301 22.8883C2.72922 22.2093 2.65416 21.529 2.4707 20.8734C2.2736 20.2245 1.97105 19.6112 1.57475 19.0571C1.3232 18.7015 1.03908 18.3693 0.725959 18.0645C0.712133 18.0527 0.695454 18.0445 0.677503 18.0407C0.659551 18.037 0.640922 18.0378 0.623381 18.0431C0.605839 18.0484 0.589966 18.058 0.577267 18.071C0.564567 18.084 0.555461 18.1 0.550811 18.1174C0.451231 18.5424 0.391477 18.9754 0.372295 19.4111C0.283222 20.7767 0.678363 22.1305 1.49055 23.2423ZM12.8651 43.3381V43.3215C12.6851 42.9672 12.3832 42.6871 12.0129 42.5308C11.8626 42.4908 11.7033 42.4973 11.5569 42.5494C11.4104 42.6015 11.2839 42.6967 11.1944 42.8219C10.9553 42.4911 10.4332 41.9187 9.7764 41.965C9.22401 42.0047 9.02528 42.5837 8.95792 42.8881C8.58041 42.8248 8.19219 42.8852 7.85314 43.0601C7.73841 43.1321 7.6424 43.2294 7.5728 43.3443C7.50321 43.4592 7.46194 43.5885 7.45232 43.7218C7.43267 43.8592 7.44456 43.9991 7.4871 44.1313C7.52965 44.2636 7.60178 44.3848 7.6982 44.4861C7.98452 44.7463 8.34801 44.9097 8.73561 44.9526C8.73561 45.2669 8.80635 45.8856 9.33516 46.0742C9.96165 46.3025 10.5915 45.8856 10.8946 45.6341C10.9501 45.7844 11.0499 45.915 11.1813 46.0093C11.3127 46.1036 11.4697 46.1573 11.6323 46.1635C12.0262 46.1173 12.3874 45.9257 12.6428 45.6275C12.7607 45.697 14.3269 45.7499 14.4212 44.7475C14.5155 43.745 12.9964 43.3149 12.8651 43.3513V43.3381ZM0.803428 27.3581C1.12689 27.9869 1.55493 28.5583 2.06988 29.0487C2.39258 29.3698 2.74558 29.66 3.12414 29.9155C3.14071 29.925 3.15946 29.9303 3.17865 29.9309C3.19784 29.9314 3.21687 29.9272 3.23397 29.9186C3.25108 29.9101 3.26571 29.8974 3.27654 29.8818C3.28736 29.8663 3.29403 29.8483 3.29592 29.8295C3.3167 29.3742 3.29528 28.9179 3.23192 28.4664C3.06642 27.052 2.40278 25.7389 1.35582 24.7543C1.03153 24.4375 0.677407 24.1517 0.298194 23.9007C0.281725 23.8919 0.263315 23.8872 0.244577 23.8871C0.225839 23.8869 0.207345 23.8912 0.19072 23.8997C0.174094 23.9082 0.159844 23.9206 0.14922 23.9358C0.138595 23.9509 0.131921 23.9684 0.129782 23.9867C0.104496 24.4416 0.121407 24.8979 0.180306 25.3498C0.275736 26.0522 0.486158 26.7348 0.803428 27.3713V27.3581ZM3.46433 34.9411C3.89316 35.1866 4.34417 35.3926 4.81162 35.5565C4.83216 35.5609 4.85348 35.5604 4.87378 35.555C4.89408 35.5496 4.91277 35.5396 4.92828 35.5256C4.94379 35.5117 4.95567 35.4943 4.96292 35.4749C4.97016 35.4555 4.97257 35.4347 4.96993 35.4142C4.86313 34.9259 4.71324 34.4477 4.52196 33.985C4.22942 33.2626 3.8187 32.5921 3.30602 31.9999C2.78919 31.4314 2.18033 30.9507 1.50402 30.5772C1.07531 30.3324 0.62425 30.1275 0.156728 29.9651C0.136543 29.9599 0.115328 29.9596 0.0950351 29.9645C0.0747418 29.9694 0.0560209 29.9792 0.0405935 29.993C0.0251661 30.0069 0.0135278 30.0243 0.00674721 30.0437C-3.33366e-05 30.0631 -0.00173797 30.0839 0.00179015 30.1041C0.106547 30.5929 0.256493 31.0713 0.449764 31.5334C1.01841 32.9889 2.09198 34.2004 3.48117 34.9543L3.46433 34.9411ZM15.1454 40.3406C15.3345 39.9906 15.3895 39.5856 15.3003 39.1991C15.2439 39.0561 15.1443 38.9334 15.0148 38.8477C14.8854 38.7619 14.7323 38.7172 14.5761 38.7194C14.7075 38.3356 14.8725 37.5846 14.4481 37.0883C14.0877 36.6714 13.4949 36.8534 13.2053 36.9824C13.0372 36.6437 12.7585 36.37 12.4137 36.2049C12.2854 36.1562 12.1473 36.1377 12.0104 36.1509C11.8735 36.1641 11.7417 36.2087 11.6256 36.281C11.5013 36.3468 11.3933 36.4387 11.3094 36.5502C11.2256 36.6618 11.1679 36.7902 11.1405 36.9262C11.0951 37.3066 11.1741 37.6913 11.3662 38.0246C11.1068 38.2099 10.642 38.6268 10.797 39.1594C10.9789 39.7913 11.6929 40.0461 12.0769 40.152C11.9898 40.2828 11.9434 40.4357 11.9434 40.592C11.9434 40.7483 11.9898 40.9012 12.0769 41.032C12.3415 41.3084 12.7021 41.4773 13.0874 41.5051C13.0874 41.6408 13.9698 42.9046 14.8591 42.3984C15.7483 41.8922 15.1959 40.4497 15.0915 40.367L15.1454 40.3406ZM30.1576 39.841L32.7141 46.4183C27.1461 48.4937 21.0029 48.5278 15.4114 46.5142L17.8905 39.8972C21.8527 41.3316 26.2091 41.3117 30.1576 39.841ZM47.8408 29.7005C47.3725 29.8677 46.9213 30.0782 46.4935 30.3291C45.8153 30.7148 45.2074 31.2091 44.6949 31.7914C44.1903 32.3852 43.7876 33.0556 43.5025 33.7765C43.3144 34.2412 43.1701 34.7218 43.0714 35.2124C43.0685 35.2328 43.0708 35.2536 43.078 35.2729C43.0853 35.2922 43.0973 35.3095 43.1129 35.3232C43.1285 35.337 43.1473 35.3467 43.1677 35.3516C43.1881 35.3565 43.2094 35.3564 43.2297 35.3514C43.6974 35.1828 44.1484 34.9724 44.577 34.7227C45.2552 34.337 45.8631 33.8427 46.3756 33.2604C46.8791 32.6666 47.2807 31.9961 47.5646 31.2753C47.7529 30.8104 47.8983 30.3299 47.9991 29.8394C48.0015 29.82 47.9992 29.8004 47.9925 29.782C47.9858 29.7636 47.9748 29.747 47.9604 29.7335C47.946 29.72 47.9286 29.71 47.9096 29.7043C47.8906 29.6985 47.8705 29.6972 47.8509 29.7005H47.8408ZM45.4089 37.5714C45.0382 37.4734 44.645 37.499 44.2907 37.6441C44.1593 37.3629 43.836 36.8402 43.2802 36.9196C42.6268 37.0155 42.2495 37.6905 42.0878 38.061C41.9718 37.9588 41.8266 37.8938 41.6719 37.8749C41.5172 37.856 41.3603 37.884 41.2222 37.9551C40.8961 38.1873 40.6655 38.5265 40.5721 38.9113V38.9278C40.4374 38.9278 39.0531 39.6557 39.3832 40.6085C39.7132 41.5614 41.2155 41.1776 41.3131 41.0817C41.6231 41.3159 42.0115 41.427 42.4011 41.3927C42.556 41.3516 42.6955 41.2672 42.8025 41.1497C42.9095 41.0322 42.9795 40.8868 43.004 40.731C43.3408 40.9129 44.0616 41.1842 44.6241 40.8269C45.0957 40.5258 45.0283 39.9104 44.9609 39.6028C45.3293 39.4765 45.6469 39.2377 45.867 38.9212C45.9383 38.8018 45.9816 38.6683 45.9938 38.5304C46.0061 38.3925 45.9869 38.2536 45.9377 38.1239C45.8977 38.0001 45.8306 37.8864 45.7409 37.791C45.6513 37.6955 45.5414 37.6205 45.419 37.5714H45.4089ZM40.2926 42.8947C39.9516 42.7217 39.5615 42.6658 39.1844 42.7359C39.1137 42.4315 38.9082 41.8558 38.3558 41.8194C37.6822 41.7797 37.1837 42.362 36.9446 42.6929C36.8534 42.5689 36.7258 42.4752 36.5789 42.4244C36.4321 42.3735 36.2729 42.3679 36.1227 42.4084C35.7554 42.5708 35.4583 42.8556 35.284 43.2123V43.2289C35.1527 43.1925 33.6437 43.6259 33.7649 44.6284C33.8862 45.6308 35.4322 45.558 35.5501 45.4853C35.8063 45.7808 36.1678 45.9689 36.5606 46.0113C36.7197 46.0038 36.8732 45.951 37.0024 45.8594C37.1316 45.7678 37.2308 45.6412 37.2881 45.4952C37.5946 45.7466 38.2245 46.1569 38.851 45.922C39.3764 45.7268 39.4404 45.1081 39.437 44.7938C39.8243 44.7472 40.1858 44.579 40.4677 44.3141C40.563 44.2122 40.6338 44.0907 40.6752 43.9585C40.7166 43.8262 40.7274 43.6866 40.7069 43.5498C40.6948 43.4175 40.6522 43.2898 40.5821 43.1762C40.5121 43.0627 40.4165 42.9664 40.3027 42.8947H40.2926ZM34.9809 41.386H35.0011C35.3877 41.3552 35.7483 41.1828 36.0116 40.903C36.0974 40.7717 36.1431 40.619 36.1431 40.463C36.1431 40.3069 36.0974 40.1542 36.0116 40.0229C36.3955 39.927 37.1029 39.6656 37.2814 39.0304C37.4296 38.4977 36.9446 38.0842 36.6953 37.9022C36.8832 37.5664 36.9575 37.1805 36.9075 36.8005C36.8802 36.6648 36.8221 36.537 36.7375 36.4264C36.653 36.3159 36.5441 36.2255 36.4191 36.1619C36.3021 36.0899 36.1694 36.046 36.0318 36.0339C35.8943 36.0219 35.7557 36.0419 35.6276 36.0925C35.2982 36.263 35.0337 36.5334 34.8731 36.8633C34.5834 36.7409 33.9839 36.5656 33.6302 36.9857C33.2126 37.4853 33.3877 38.2364 33.5191 38.6168C33.3637 38.6167 33.2121 38.6632 33.0844 38.7501C32.9568 38.837 32.8593 38.9602 32.805 39.1032C32.7189 39.4908 32.7775 39.8959 32.97 40.2446V40.2612C32.8656 40.3439 32.3334 41.7963 33.2294 42.2926C34.1253 42.7888 34.9809 41.525 34.991 41.386H34.9809ZM9.27453 9.02241C9.28095 9.0394 9.29145 9.05462 9.30514 9.06677C9.31883 9.07893 9.33531 9.08764 9.35317 9.09219C9.37103 9.09674 9.38974 9.09698 9.40772 9.0929C9.4257 9.08881 9.4424 9.08052 9.45642 9.06873C9.76008 8.74389 10.0319 8.39163 10.2682 8.01663C11.0451 6.85048 11.3835 5.45455 11.2247 4.0696C11.1829 3.62243 11.1017 3.17966 10.9822 2.74621C10.9761 2.72893 10.9657 2.71343 10.9519 2.70114C10.9381 2.68886 10.9214 2.68018 10.9032 2.67589C10.8851 2.67161 10.8662 2.67187 10.8482 2.67664C10.8303 2.68141 10.8138 2.69054 10.8003 2.7032C10.4929 3.03567 10.2177 3.39566 9.97849 3.77846C9.20603 4.94274 8.86911 6.33435 9.02528 7.71556C9.06629 8.15791 9.14974 8.59547 9.27453 9.02241ZM5.15182 19.11C5.76812 18.8567 6.33726 18.5045 6.83593 18.0678C7.32542 17.6186 7.73623 17.0932 8.05186 16.5128C8.25193 16.1425 8.41981 15.7562 8.55373 15.3582C8.55761 15.3412 8.55729 15.3235 8.5528 15.3066C8.5483 15.2898 8.53976 15.2742 8.52789 15.2612C8.51602 15.2483 8.50116 15.2383 8.48456 15.2321C8.46796 15.226 8.4501 15.2238 8.43247 15.2258C8.01805 15.3162 7.61321 15.4447 7.22328 15.6096C6.60709 15.8631 6.03799 16.2153 5.53916 16.6518C5.0516 17.1019 4.64203 17.6271 4.3266 18.2068C4.1183 18.5795 3.94577 18.9705 3.81126 19.3747C3.80669 19.3915 3.8064 19.4091 3.81042 19.426C3.81443 19.4429 3.82262 19.4586 3.83427 19.4717C3.84592 19.4848 3.86067 19.4949 3.87722 19.501C3.89377 19.5072 3.9116 19.5092 3.92915 19.507C4.34859 19.413 4.75799 19.2801 5.15182 19.11ZM4.68026 31.5433C4.68826 31.5608 4.70044 31.5761 4.71576 31.588C4.73109 31.5999 4.7491 31.6079 4.76828 31.6115C4.78746 31.6151 4.80724 31.6141 4.82592 31.6085C4.84461 31.603 4.86166 31.5931 4.87562 31.5797C5.17178 31.2174 5.43441 30.8299 5.66042 30.4217C6.01893 29.7851 6.2703 29.0958 6.4048 28.3804C6.52307 27.6605 6.52307 26.9266 6.4048 26.2067C6.33621 25.7451 6.22344 25.291 6.06798 24.8502C6.06042 24.8328 6.0486 24.8174 6.03358 24.8055C6.01857 24.7936 6.00079 24.7854 5.98183 24.7819C5.96288 24.7783 5.94331 24.7793 5.92485 24.7849C5.90639 24.7904 5.88962 24.8004 5.87599 24.8138C5.57765 25.1752 5.31382 25.5629 5.08782 25.9718C4.35376 27.2498 4.09197 28.7377 4.34681 30.1835C4.41645 30.6456 4.52804 31.1007 4.68026 31.5433ZM3.17129 25.1943C3.17184 25.2128 3.17703 25.2309 3.18641 25.247C3.19579 25.2631 3.20907 25.2766 3.22507 25.2865C3.24107 25.2963 3.25929 25.3021 3.27811 25.3033C3.29694 25.3045 3.31578 25.3012 3.33297 25.2936C3.72671 25.0807 4.0989 24.8314 4.44449 24.5491C5.55943 23.675 6.32702 22.4446 6.61363 21.0719C6.71725 20.6375 6.77816 20.1944 6.79551 19.7485C6.79558 19.7301 6.79091 19.712 6.78193 19.6958C6.77295 19.6797 6.75996 19.666 6.74417 19.6561C6.72837 19.6462 6.71028 19.6404 6.69158 19.6392C6.67288 19.638 6.65417 19.6415 6.63721 19.6493C6.24298 19.8631 5.86976 20.1123 5.52232 20.3937C4.97591 20.8307 4.506 21.3526 4.13124 21.9387C3.7691 22.5381 3.50645 23.1904 3.35318 23.8709C3.25332 24.306 3.19246 24.7488 3.17129 25.1943ZM2.30229 17.8693C2.51229 18.2383 2.757 18.5872 3.0332 18.9115C3.04524 18.9245 3.06049 18.9343 3.07748 18.9398C3.09448 18.9454 3.11264 18.9466 3.13024 18.9433C3.14783 18.9399 3.16425 18.9322 3.17793 18.9209C3.19161 18.9095 3.20208 18.8949 3.20835 18.8784C3.34429 18.4745 3.44238 18.0592 3.50138 17.6377C3.7141 16.3178 3.45463 14.9663 2.76711 13.8131C2.55745 13.4431 2.31153 13.094 2.03283 12.7709C2.02079 12.7579 2.00554 12.7481 1.98855 12.7426C1.97156 12.737 1.95339 12.7358 1.9358 12.7391C1.91821 12.7425 1.90178 12.7502 1.8881 12.7615C1.87442 12.7729 1.86395 12.7875 1.85769 12.804C1.72225 13.2045 1.62527 13.6165 1.56802 14.0348C1.46867 14.6937 1.47891 15.3641 1.59833 16.0199C1.72867 16.6699 1.96647 17.2947 2.30229 17.8693ZM14.4616 4.72799C15.5887 4.74195 16.7056 4.51622 17.7355 4.0663C18.7611 3.5721 19.6663 2.86686 20.3897 1.99849C20.4005 1.98616 20.4076 1.97106 20.4101 1.95495C20.4125 1.93883 20.4103 1.92236 20.4036 1.90745C20.3969 1.89255 20.386 1.87982 20.3722 1.87075C20.3584 1.86168 20.3423 1.85664 20.3257 1.85623C19.1971 1.83871 18.0784 2.06458 17.0484 2.51792C16.0287 3.00934 15.1282 3.70997 14.4077 4.57249C14.3945 4.58419 14.385 4.59945 14.3805 4.61637C14.376 4.6333 14.3767 4.65115 14.3824 4.66771C14.3882 4.68427 14.3987 4.69881 14.4128 4.70953C14.4269 4.72024 14.4439 4.72666 14.4616 4.72799ZM5.30676 14.6535C5.72675 14.6944 6.14984 14.6944 6.56984 14.6535C7.22507 14.605 7.86729 14.4484 8.46952 14.1903C9.07008 13.9181 9.61998 13.5491 10.0964 13.0985C10.4132 12.8174 10.7019 12.5072 10.9586 12.1721C10.9684 12.1575 10.9743 12.1407 10.9758 12.1233C10.9774 12.106 10.9745 12.0885 10.9675 12.0724C10.9605 12.0564 10.9496 12.0423 10.9357 12.0314C10.9218 12.0205 10.9054 12.0131 10.8879 12.01C10.4679 11.9703 10.0449 11.9703 9.62483 12.01C8.29657 12.0951 7.04427 12.6484 6.09829 13.5683C5.7812 13.8501 5.49142 14.1602 5.23265 14.4946C5.22301 14.5098 5.21727 14.5269 5.21594 14.5447C5.21462 14.5625 5.21775 14.5803 5.22506 14.5967C5.23237 14.613 5.24364 14.6273 5.25788 14.6383C5.27212 14.6494 5.2889 14.6569 5.30676 14.6601V14.6535ZM4.34681 14.756C4.35668 14.7703 4.36998 14.7821 4.38554 14.7902C4.4011 14.7983 4.41845 14.8025 4.43607 14.8025C4.45368 14.8025 4.47103 14.7983 4.48659 14.7902C4.50215 14.7821 4.51545 14.7703 4.52533 14.756C4.7321 14.3853 4.90349 13.9965 5.0373 13.5947C5.48631 12.3443 5.47917 10.9795 5.01709 9.73374C4.87834 9.33437 4.70362 8.94796 4.49501 8.57907C4.48514 8.56474 4.47184 8.55301 4.45628 8.5449C4.44072 8.53679 4.42337 8.53255 4.40575 8.53255C4.38814 8.53255 4.37079 8.53679 4.35523 8.5449C4.33967 8.55301 4.32637 8.56474 4.31649 8.57907C4.10945 8.94739 3.93804 9.33397 3.80452 9.73374C3.35309 10.9871 3.36023 12.3559 3.82473 13.6047C3.96329 14.0052 4.13802 14.3927 4.34681 14.7626V14.756ZM8.43247 10.8123C8.84237 10.9337 9.26302 11.0168 9.68882 11.0604C11.0272 11.2226 12.3801 10.9042 13.4983 10.1638C13.8595 9.9355 14.1978 9.67406 14.5088 9.38304C14.5202 9.36944 14.5284 9.35345 14.5326 9.33628C14.5368 9.31911 14.537 9.30122 14.5331 9.28398C14.5292 9.26674 14.5213 9.2506 14.5101 9.2368C14.4989 9.22301 14.4846 9.21192 14.4683 9.20438C14.0573 9.08307 13.6355 8.99999 13.2086 8.95624C11.8714 8.79461 10.5197 9.11303 9.40252 9.85284C9.04135 10.0812 8.70302 10.3426 8.39205 10.6336C8.37988 10.647 8.37113 10.6629 8.3665 10.6803C8.36188 10.6976 8.36154 10.7157 8.36549 10.7332C8.36944 10.7507 8.37758 10.7669 8.38923 10.7807C8.40088 10.7945 8.41571 10.8053 8.43247 10.8123ZM12.3565 5.96537C12.684 5.69582 12.985 5.39675 13.2558 5.07208C13.6833 4.56703 14.0246 3.99718 14.2663 3.38475C14.4946 2.76798 14.6187 2.11865 14.6334 1.46252C14.6493 1.0389 14.6256 0.614733 14.5627 0.195364C14.559 0.178476 14.5512 0.162725 14.5399 0.14948C14.5286 0.136235 14.5142 0.125898 14.498 0.119374C14.4817 0.112849 14.464 0.110333 14.4465 0.112045C14.4291 0.113757 14.4123 0.119645 14.3976 0.129195C14.071 0.399672 13.77 0.698657 13.4983 1.02249C12.6261 2.03578 12.1391 3.31515 12.1207 4.64197C12.1049 5.06559 12.1285 5.48974 12.1914 5.90912C12.1963 5.92516 12.205 5.93983 12.2168 5.95192C12.2286 5.96401 12.2432 5.97318 12.2593 5.97867C12.2754 5.98416 12.2926 5.98581 12.3095 5.9835C12.3264 5.98119 12.3425 5.97498 12.3565 5.96537ZM6.66078 11.5633C6.66823 11.5793 6.67962 11.5933 6.69393 11.6039C6.70824 11.6145 6.72502 11.6214 6.74274 11.624C6.76047 11.6267 6.77858 11.6249 6.79544 11.6189C6.8123 11.613 6.82737 11.6029 6.8393 11.5898C7.0966 11.244 7.32204 10.8764 7.51294 10.4914C7.81635 9.89359 8.01776 9.25091 8.10912 8.589C8.18784 7.92681 8.15712 7.25648 8.01818 6.60391C7.93308 6.18235 7.80907 5.76929 7.64767 5.36984C7.63932 5.35465 7.62742 5.34163 7.61295 5.33184C7.59849 5.32204 7.58186 5.31575 7.56444 5.31349C7.54701 5.31123 7.5293 5.31306 7.51273 5.31883C7.49617 5.3246 7.48124 5.33414 7.46916 5.34668C7.21084 5.69178 6.98534 6.05947 6.79551 6.4451C6.49356 7.04346 6.29223 7.6859 6.19934 8.34748C6.12231 9.00973 6.15301 9.67979 6.29028 10.3326C6.37438 10.7533 6.49843 11.1653 6.66078 11.5633ZM20.0192 45.5349H19.7902V42.3984C19.7902 42.3511 19.771 42.3056 19.7369 42.2721C19.7028 42.2386 19.6565 42.2198 19.6083 42.2198H19.4533C19.4224 42.2192 19.3919 42.2265 19.3647 42.241C19.3376 42.2555 19.3147 42.2767 19.2984 42.3025C18.9977 42.756 18.6071 43.1453 18.1498 43.4472C18.1107 43.4728 18.0835 43.5126 18.074 43.5578C18.0646 43.603 18.0737 43.6501 18.0993 43.6888L18.2307 43.8972C18.243 43.9179 18.2595 43.936 18.2792 43.9502C18.2989 43.9644 18.3213 43.9745 18.3452 43.9799C18.3688 43.9847 18.3932 43.9849 18.4169 43.9803C18.4407 43.9758 18.4632 43.9666 18.4833 43.9534C18.6326 43.8598 18.7765 43.7582 18.9144 43.649V45.5382H18.5776C18.5432 45.5358 18.5087 45.5406 18.4763 45.5523C18.444 45.5641 18.4145 45.5825 18.39 45.6063C18.3654 45.6301 18.3463 45.6587 18.334 45.6903C18.3216 45.722 18.3162 45.7558 18.3182 45.7896V45.9054C18.3162 45.9396 18.3216 45.9737 18.3342 46.0056C18.3468 46.0375 18.3662 46.0663 18.3911 46.0901C18.416 46.114 18.4459 46.1323 18.4786 46.1438C18.5114 46.1553 18.5463 46.1598 18.581 46.1569L19.322 46.137L20.0259 46.1569C20.0603 46.1593 20.0949 46.1545 20.1272 46.1427C20.1596 46.131 20.189 46.1126 20.2135 46.0888C20.2381 46.065 20.2572 46.0363 20.2695 46.0047C20.2819 45.9731 20.2873 45.9393 20.2853 45.9054V45.7963C20.2884 45.7612 20.2836 45.7258 20.2713 45.6928C20.259 45.6597 20.2395 45.6296 20.2142 45.6047C20.1888 45.5798 20.1582 45.5607 20.1245 45.5486C20.0909 45.5365 20.0549 45.5319 20.0192 45.5349ZM23.246 42.3786C23.23 42.35 23.2066 42.3261 23.1782 42.3093C23.1498 42.2925 23.1174 42.2833 23.0843 42.2826H20.9017C20.8531 42.2835 20.8069 42.3031 20.7728 42.3371C20.7388 42.3711 20.7198 42.4169 20.7198 42.4646V43.3744C20.7179 43.4081 20.7232 43.4418 20.7353 43.4733C20.7474 43.5049 20.7662 43.5336 20.7903 43.5576C20.8144 43.5816 20.8434 43.6003 20.8753 43.6127C20.9073 43.625 20.9415 43.6306 20.9758 43.6292H21.0937C21.1281 43.6312 21.1625 43.6259 21.1947 43.6137C21.2269 43.6016 21.2561 43.5828 21.2803 43.5587C21.3046 43.5346 21.3233 43.5057 21.3352 43.4739C21.3472 43.4422 21.3521 43.4082 21.3496 43.3744V43.1065H22.5386C22.1098 43.9744 21.6226 44.8133 21.0802 45.6176C21.0596 45.6491 21.049 45.686 21.0499 45.7235V45.8591C21.0502 45.89 21.0592 45.9203 21.0758 45.9465C21.0924 45.9728 21.1161 45.9941 21.1442 46.008L21.4473 46.1701C21.4737 46.1859 21.5041 46.1939 21.5349 46.1933H21.5888L21.71 46.1536C21.7337 46.1467 21.7557 46.1353 21.7748 46.1199C21.7939 46.1046 21.8097 46.0856 21.8212 46.0642C22.3946 44.988 22.9117 43.8837 23.3706 42.7558C23.3821 42.7332 23.3882 42.7082 23.3882 42.683C23.3882 42.6577 23.3821 42.6328 23.3706 42.6102L23.246 42.3786ZM25.1322 43.4373C24.9733 43.4354 24.8152 43.4589 24.664 43.5068L24.6909 43.1759C24.92 43.1759 25.2164 43.1759 25.3949 43.1759C25.6562 43.1833 25.9103 43.091 26.1038 42.9182C26.2972 42.7455 26.415 42.5058 26.4323 42.2496C26.4389 42.2082 26.4308 42.1659 26.4093 42.1297C26.3878 42.0935 26.3543 42.0658 26.3144 42.051L26.146 41.9948C26.105 41.9808 26.0602 41.9814 26.0196 41.9965C25.9789 42.0116 25.945 42.0403 25.9237 42.0775C25.789 42.329 25.789 42.329 25.4724 42.3521C25.2164 42.3521 24.7987 42.3521 24.4855 42.3521H24.2564C24.2082 42.3521 24.1619 42.3709 24.1278 42.4044C24.0937 42.438 24.0745 42.4834 24.0745 42.5308V42.5606L23.9263 44.1817C23.9229 44.2066 23.925 44.232 23.9325 44.256C23.9401 44.28 23.9529 44.3021 23.9701 44.3207C23.9876 44.3384 24.0086 44.3525 24.0317 44.3622C24.0548 44.3718 24.0797 44.3768 24.1049 44.3769H24.3945C24.4224 44.3768 24.45 44.3705 24.475 44.3585C24.5001 44.3464 24.5221 44.329 24.5394 44.3074L24.5899 44.238C24.6572 44.1288 24.7987 44.0758 25.0547 44.0758C25.3107 44.0758 25.5566 44.1552 25.5566 44.7375C25.5566 45.5051 25.2467 45.611 24.9132 45.611C24.7982 45.6152 24.6835 45.5961 24.5764 45.5547C24.6523 45.4605 24.6939 45.344 24.6943 45.2239C24.7011 45.1561 24.693 45.0877 24.6706 45.0233C24.6482 44.9588 24.612 44.8999 24.5645 44.8503C24.5169 44.8008 24.4591 44.7618 24.3949 44.7361C24.3307 44.7104 24.2617 44.6985 24.1924 44.7011C24.1175 44.7017 24.0434 44.7176 23.9751 44.7479C23.9067 44.7781 23.8455 44.8221 23.7954 44.8769C23.7453 44.9317 23.7075 44.9961 23.6842 45.0661C23.6609 45.1362 23.6528 45.2102 23.6602 45.2834C23.6602 45.826 24.1823 46.2197 24.8964 46.2197C25.0993 46.2301 25.3021 46.1986 25.4919 46.1275C25.6817 46.0563 25.8543 45.947 25.9985 45.8065C26.1428 45.666 26.2556 45.4975 26.3298 45.3117C26.4039 45.1259 26.4377 44.927 26.4289 44.7276C26.4446 44.5557 26.422 44.3826 26.3626 44.2201C26.3032 44.0577 26.2085 43.91 26.0851 43.7871C25.9617 43.6643 25.8125 43.5694 25.6479 43.509C25.4833 43.4486 25.3073 43.4241 25.1322 43.4373ZM28.5678 43.4373C28.41 43.4351 28.2529 43.4586 28.1029 43.5068L28.1265 43.1759C28.3522 43.1759 28.6553 43.1759 28.8305 43.1759C29.0918 43.1833 29.3459 43.091 29.5394 42.9182C29.7328 42.7455 29.8506 42.5058 29.8679 42.2496C29.8752 42.2081 29.8673 42.1655 29.8458 42.1292C29.8242 42.0929 29.7903 42.0652 29.75 42.051L29.5816 41.9948C29.5406 41.9808 29.4958 41.9814 29.4552 41.9965C29.4145 42.0116 29.3806 42.0403 29.3593 42.0775C29.2279 42.329 29.2279 42.329 28.908 42.3521C28.652 42.3521 28.2343 42.3521 27.9211 42.3521H27.692C27.6438 42.3521 27.5975 42.3709 27.5634 42.4044C27.5293 42.438 27.5101 42.4834 27.5101 42.5308V42.5606L27.3619 44.1817C27.3585 44.2066 27.3606 44.232 27.3681 44.256C27.3757 44.28 27.3885 44.3021 27.4057 44.3207C27.4232 44.3384 27.4442 44.3525 27.4673 44.3622C27.4904 44.3718 27.5153 44.3768 27.5405 44.3769H27.8301C27.858 44.3768 27.8856 44.3705 27.9106 44.3585C27.9357 44.3464 27.9577 44.329 27.975 44.3074L28.0255 44.238C28.0928 44.1288 28.2343 44.0758 28.4937 44.0758C28.753 44.0758 28.9922 44.1552 28.9922 44.7375C28.9922 45.5051 28.6823 45.611 28.3488 45.611C28.2394 45.613 28.1307 45.5939 28.0288 45.5547C28.1048 45.4605 28.1463 45.344 28.1467 45.2239C28.1535 45.1561 28.1455 45.0877 28.1231 45.0233C28.1007 44.9588 28.0645 44.8999 28.0169 44.8503C27.9694 44.8008 27.9115 44.7618 27.8474 44.7361C27.7832 44.7104 27.7141 44.6985 27.6449 44.7011C27.5702 44.7022 27.4965 44.7184 27.4286 44.7489C27.3606 44.7793 27.2998 44.8233 27.2501 44.8781C27.2004 44.9328 27.1628 44.9971 27.1397 45.0669C27.1166 45.1367 27.1086 45.2104 27.1161 45.2834C27.1161 45.826 27.6348 46.2197 28.3488 46.2197C28.5517 46.2301 28.7545 46.1986 28.9443 46.1275C29.1341 46.0563 29.3067 45.947 29.451 45.8065C29.5953 45.666 29.7081 45.4975 29.7822 45.3117C29.8563 45.1259 29.8901 44.927 29.8814 44.7276C29.8974 44.5542 29.8744 44.3795 29.8141 44.2158C29.7537 44.0521 29.6575 43.9034 29.5322 43.7803C29.4068 43.6572 29.2555 43.5627 29.0888 43.5034C28.9222 43.4441 28.7443 43.4216 28.5678 43.4373Z" fill="black"/>
</svg>
