<svg width="95" height="48" viewBox="0 0 95 48" fill="none" xmlns="http://www.w3.org/2000/svg">
<g clip-path="url(#clip0_2223_2986)">
<path d="M43.4096 20.1598C40.1647 20.1598 36.9252 20.1543 33.6802 20.1598C31.8899 20.1598 30.3961 21.2814 29.8869 22.9583C29.7695 23.3526 29.831 23.4748 30.2785 23.4803C33.1599 23.5026 35.5322 25.8568 35.5601 28.7166C35.5769 30.2214 35.5544 31.7262 35.5712 33.2255C35.5769 33.5641 35.4762 33.6531 35.1349 33.6531C33.0033 33.6363 30.8772 33.6363 28.7455 33.6531C28.3652 33.6586 28.2588 33.5586 28.2588 33.1755C28.2755 30.5823 28.2588 27.9947 28.2755 25.4015C28.2812 24.9963 28.1638 24.8963 27.7665 24.9018C24.3481 24.9184 20.9296 24.9018 17.5055 24.9184C17.0971 24.9184 16.9405 24.8463 16.9573 24.4021C16.9908 23.4692 16.9629 23.4692 17.8972 23.4692C21.2037 23.4692 24.5103 23.4637 27.8168 23.4748C28.1358 23.4748 28.2925 23.4193 28.3652 23.0639C28.891 20.4652 31.0003 18.6827 33.6579 18.6772C40.1423 18.655 46.6266 18.6438 53.1111 18.6827C55.3267 18.6939 56.9883 19.7545 57.9841 21.7367C58.152 22.07 58.3367 22.1533 58.6835 22.1533C62.6503 22.1422 66.6226 22.1588 70.5894 22.1422C72.5924 22.131 74.2428 22.8028 75.4344 24.4354C75.58 24.6352 75.7422 24.6243 75.9324 24.6243C80.0782 24.6243 84.224 24.6409 88.3698 24.6186C91.7267 24.602 94.0653 27.334 93.9199 30.1381C93.8639 31.1764 93.8974 32.2148 93.9199 33.2588C93.9254 33.5809 93.8135 33.6586 93.5058 33.6586C92.4596 33.664 92.4596 33.6752 92.4596 32.6423C92.4596 31.7651 92.4651 30.8821 92.4596 30.0049C92.4484 27.8115 90.7363 26.1179 88.532 26.1179C84.61 26.1179 80.6936 26.1234 76.7717 26.1123C76.3801 26.1123 76.229 26.1623 76.3352 26.6122C76.4639 27.1508 76.4471 27.7227 76.4416 28.2834C76.4361 29.9327 76.4304 31.5762 76.4471 33.2255C76.4528 33.5531 76.3632 33.664 76.0163 33.664C74.3547 33.6474 72.6931 33.6586 71.0314 33.6531C70.8635 33.6531 70.6564 33.7141 70.6677 33.4198C70.7124 31.9816 70.5334 30.5379 70.7628 29.1109C71.0425 27.3507 72.0384 26.0679 73.6161 25.2406C73.9462 25.0684 74.0301 24.9796 73.7168 24.7019C73.0064 24.069 72.2006 23.6581 71.2383 23.6581C67.143 23.647 63.0419 23.6581 58.9466 23.647C58.5995 23.647 58.5213 23.758 58.5268 24.08C58.5381 27.1007 58.5268 30.127 58.5438 33.1477C58.5438 33.5254 58.4821 33.6752 58.0513 33.6697C55.5336 33.6474 53.016 33.6531 50.5038 33.6697C50.1458 33.6697 50.0395 33.5864 50.0451 33.2199C50.062 31.2709 50.0451 29.3163 50.0563 27.3673C50.073 24.7575 52.2606 22.4308 54.8679 22.2198C55.2875 22.1866 55.7071 22.1866 56.1211 22.1643C56.2275 22.1588 56.3617 22.2143 56.4232 22.0921C56.4848 21.97 56.3729 21.8811 56.3057 21.7979C55.4889 20.7484 54.4315 20.1709 53.0719 20.1764C49.8604 20.1654 46.6378 20.1598 43.4096 20.1598ZM57.0498 27.9171C57.0498 26.6231 57.0386 25.3239 57.0555 24.0301C57.0611 23.7191 56.9659 23.608 56.647 23.6247C56.2275 23.647 55.8078 23.6303 55.3882 23.6303C53.5195 23.6413 51.8635 25.0074 51.6117 26.8398C51.3766 28.5388 51.5613 30.2547 51.5165 31.965C51.511 32.2648 51.7404 32.1815 51.8913 32.1815C53.4747 32.187 55.0524 32.176 56.6358 32.1927C56.9939 32.1982 57.0555 32.0704 57.0498 31.754C57.0386 30.4768 57.0498 29.1942 57.0498 27.9171ZM29.7415 28.5334C29.7415 29.6327 29.747 30.7378 29.7358 31.8373C29.7303 32.0982 29.7974 32.1982 30.0828 32.1927C31.3079 32.176 32.5277 32.176 33.7529 32.1927C34.0327 32.1982 34.1054 32.1039 34.0999 31.8373C34.0887 30.8488 34.0942 29.8604 34.0942 28.8664C34.0942 26.6677 32.3319 24.9184 30.1163 24.9018C29.8254 24.9018 29.7303 24.974 29.7303 25.2738C29.7527 26.3622 29.7415 27.445 29.7415 28.5334ZM74.9534 29.3051C74.8862 28.55 75.0541 27.5895 74.8639 26.6399C74.8022 26.329 74.6848 26.329 74.4499 26.4455C73.2358 27.0508 72.4692 27.9947 72.2231 29.3329C72.0664 30.1882 72.1839 31.0544 72.1446 31.915C72.1336 32.1704 72.2623 32.1982 72.4692 32.1982C73.1798 32.1927 73.8847 32.1815 74.5953 32.2038C74.9199 32.2148 74.9646 32.0761 74.9589 31.8095C74.9421 31.0321 74.9534 30.2658 74.9534 29.3051Z" fill="black"/>
<path d="M43.3815 16.2731C38.9728 16.2676 35.4647 12.7527 35.4647 8.34934C35.4704 4.07371 39.0903 0.492168 43.4205 0.542143C48.2042 0.597672 51.4156 4.52349 51.3428 8.58256C51.2591 12.8027 47.7342 16.2787 43.3815 16.2731ZM43.4262 2.01917C40.198 1.95254 36.9697 4.51793 36.9307 8.43262C36.897 11.8809 39.8456 14.8128 43.2583 14.8183C46.9454 14.8239 49.8659 12.0031 49.8714 8.42707C49.8771 4.90661 46.9789 2.03028 43.4262 2.01917Z" fill="black"/>
<path d="M70.1964 12.8921C70.2466 16.307 67.4661 19.733 63.2363 19.7664C59.4263 19.7942 56.2652 16.6513 56.2765 12.8699C56.2932 8.66085 59.8738 5.87337 63.354 5.95665C67.1472 6.0455 70.1964 9.06066 70.1964 12.8921ZM57.7702 12.8365C57.7702 15.8573 60.1816 18.2783 63.2028 18.2838C66.2577 18.2894 68.7304 15.8684 68.7417 12.8699C68.7474 9.87136 66.2744 7.41148 63.242 7.41148C60.2152 7.41703 57.7759 9.83803 57.7702 12.8365Z" fill="black"/>
<path d="M23.9436 21.0538C20.5252 21.0538 17.7557 18.3274 17.7501 14.9513C17.7444 11.5586 20.5307 8.80994 23.9659 8.80994C27.3621 8.80994 30.1314 11.5697 30.1259 14.9513C30.1259 18.3329 27.3621 21.0538 23.9436 21.0538ZM19.2439 14.8902C19.2159 17.4666 21.3028 19.5934 23.8764 19.6157C26.4613 19.6378 28.6321 17.5445 28.6544 15.0124C28.6769 12.4081 26.5955 10.2981 23.9771 10.2703C21.3812 10.2481 19.2776 12.2971 19.2439 14.8902Z" fill="black"/>
<path d="M82.3042 22.2204C78.8914 22.2092 76.1107 19.4551 76.1164 16.09C76.1276 12.7028 78.9306 9.94868 82.3546 9.95423C85.8066 9.95977 88.5089 12.7362 88.4921 16.2566C88.4754 19.5216 85.6556 22.237 82.3042 22.2204ZM77.6158 16.1067C77.6214 18.7054 79.7362 20.7766 82.3714 20.7655C84.9115 20.7543 87.0374 18.6332 87.0431 16.1067C87.0431 13.5302 84.8835 11.398 82.2987 11.4257C79.6803 11.4535 77.6046 13.5302 77.6158 16.1067Z" fill="black"/>
<path d="M68.356 41.1603C68.356 42.182 68.3672 43.2037 68.3505 44.2254C68.3448 44.5198 68.4007 44.642 68.7365 44.6364C69.5086 44.6197 69.5086 44.642 69.5086 45.4083C69.5086 45.9857 69.4974 46.5576 69.5141 47.1351C69.5253 47.3962 69.4302 47.4461 69.1896 47.4515C68.0931 47.4738 68.0819 47.485 68.0931 46.4189C68.0986 46.0913 68.0204 45.9913 67.6734 45.9968C66.0285 46.0134 64.3836 46.0191 62.7444 45.9968C62.3864 45.9913 62.3304 46.1134 62.3359 46.4298C62.3527 47.4627 62.3359 47.4461 61.2842 47.4572C60.9596 47.4572 60.8812 47.3627 60.8924 47.0574C60.9149 46.3688 60.9149 45.6858 60.8924 44.9974C60.8812 44.6919 60.9819 44.5753 61.273 44.6364C61.7485 44.7363 61.9723 44.4754 62.14 44.0811C62.8227 42.4875 63.0353 40.8049 63.1248 39.1002C63.1472 38.6561 62.9738 38.0897 63.2591 37.801C63.522 37.5399 64.0872 37.7288 64.518 37.7231C65.5977 37.712 66.6776 37.7509 67.7573 37.7065C68.2833 37.6842 68.384 37.8565 68.3615 38.334C68.328 39.278 68.356 40.2219 68.356 41.1603ZM63.5445 44.6309C64.6017 44.6309 65.6145 44.6252 66.6216 44.6364C66.8733 44.642 66.907 44.5364 66.907 44.3254C66.9013 42.6929 66.8957 41.066 66.907 39.4335C66.907 39.1669 66.8063 39.1114 66.5712 39.1225C66.1181 39.1392 65.6649 39.1669 65.2174 39.1169C64.7417 39.0613 64.613 39.2614 64.5907 39.6833C64.5068 41.3713 64.2941 43.0371 63.5445 44.6309Z" fill="black"/>
<path d="M46.3074 37.5567C48.562 37.4511 50.7776 39.1502 50.6601 42.0654C50.5819 44.0312 48.965 46.2412 45.9996 46.1135C44.0191 46.0245 41.8147 44.542 41.9154 41.6101C41.9937 39.4612 43.756 37.4567 46.3074 37.5567ZM49.0936 41.8211C49.0824 40.2052 47.8628 38.9504 46.3017 38.9337C44.7185 38.9226 43.4764 40.1997 43.4876 41.8377C43.4987 43.4258 44.7632 44.7253 46.2961 44.7253C47.9075 44.7253 49.1047 43.4814 49.0936 41.8211Z" fill="black"/>
<path d="M90.5902 46.103C88.2067 46.2084 86.1815 44.365 86.2487 41.783C86.3102 39.323 88.0613 37.5962 90.5679 37.5461C93.1973 37.4962 95.0548 39.4452 94.9989 41.9551C94.9429 44.2817 93.0239 46.2195 90.5902 46.103ZM93.4212 41.8107C93.3932 40.1837 92.1736 38.9343 90.6182 38.9343C89.0237 38.9343 87.7929 40.217 87.8152 41.8495C87.8376 43.4487 89.1075 44.7425 90.6294 44.7259C92.2575 44.7092 93.4492 43.4654 93.4212 41.8107Z" fill="black"/>
<path d="M11.2382 46.1023C8.82125 46.2134 6.81829 44.3477 6.88543 41.7934C6.94697 39.3279 8.69257 37.5955 11.1935 37.5456C13.8342 37.49 15.6861 39.4502 15.6358 41.9432C15.5798 44.2865 13.6496 46.219 11.2382 46.1023ZM14.0468 41.8988C14.114 40.2941 12.8943 38.9892 11.2886 38.9336C9.7388 38.8838 8.53031 40.0831 8.45198 41.76C8.37924 43.326 9.64927 44.6864 11.2214 44.7252C12.8048 44.7641 13.9797 43.5869 14.0468 41.8988Z" fill="black"/>
<path d="M4.10598 41.6326C5.18019 42.0768 5.56623 42.7099 5.47671 43.837C5.3928 44.8587 4.68785 45.6473 3.56329 45.8916C2.46669 46.1304 1.34772 45.9637 0.239947 45.9972C0.0273438 46.0027 0.0273438 45.8638 0.0273438 45.7083C0.0273438 43.154 0.0273438 40.5997 0.0273438 38.0455C0.0273438 37.8845 0.044128 37.7623 0.251138 37.7679C1.32535 37.79 2.40515 37.6514 3.47936 37.8401C4.31859 37.9901 4.96758 38.4343 5.12984 39.3005C5.30327 40.2 5.10186 41.0163 4.23466 41.5438C4.18431 41.5659 4.15073 41.5993 4.10598 41.6326ZM1.50998 43.4873C1.50998 44.7367 1.51557 44.7367 2.7856 44.5867C2.83595 44.5812 2.8807 44.5812 2.93107 44.5755C3.56329 44.4924 3.95491 44.1092 3.98849 43.5317C4.02205 43.0208 3.67518 42.6543 3.03737 42.5211C2.89749 42.4934 2.75202 42.4656 2.61216 42.4599C1.50998 42.41 1.50998 42.4155 1.50998 43.4873ZM2.18135 41.1773C2.25968 41.1773 2.34361 41.1773 2.42194 41.1773C3.20521 41.1661 3.66399 40.7942 3.68637 40.1556C3.70874 39.5837 3.33948 39.2561 2.56739 39.1505C2.47229 39.1395 2.37717 39.1227 2.28207 39.1227C1.50438 39.1284 1.50438 39.1284 1.50438 39.8947C1.50438 40.1 1.50438 40.3111 1.50438 40.5166C1.50998 41.1773 1.50998 41.1773 2.18135 41.1773Z" fill="black"/>
<path d="M40.097 41.9104C40.097 43.1431 40.0801 44.3702 40.1081 45.6029C40.1138 45.9528 40.0074 46.0195 39.683 46.0139C38.6478 45.9972 38.6478 46.0139 38.6478 44.97C38.6478 44.2481 38.6311 43.5317 38.6535 42.8099C38.6646 42.4991 38.5639 42.4435 38.2785 42.449C37.266 42.4656 36.2476 42.4713 35.2351 42.449C34.905 42.4435 34.7931 42.5157 34.8041 42.8654C34.8321 43.7928 34.7986 44.7201 34.8211 45.6473C34.8266 45.9417 34.7483 46.0195 34.4518 46.0195C33.3328 46.0195 33.3328 46.0305 33.3328 44.9145C33.3328 42.6767 33.3384 40.4388 33.3271 38.2012C33.3271 37.8679 33.3719 37.7347 33.7579 37.7459C34.8154 37.7736 34.8154 37.7513 34.8154 38.8231C34.8154 39.4617 34.8266 40.1003 34.8098 40.7388C34.8041 41.0109 34.8938 41.0942 35.1679 41.0885C36.2141 41.0774 37.266 41.0719 38.3122 41.0885C38.5863 41.0942 38.6703 41.0109 38.6646 40.7388C38.6478 39.8615 38.6646 38.9786 38.6535 38.1012C38.6478 37.8458 38.6926 37.7459 38.9836 37.7459C40.1081 37.7347 40.1081 37.7236 40.1081 38.8452C40.097 39.8669 40.097 40.8887 40.097 41.9104Z" fill="black"/>
<path d="M23.5463 41.8881C23.5463 43.1207 23.535 44.3479 23.552 45.5807C23.5575 45.8971 23.5071 46.0194 23.149 46.0137C22.0973 45.9971 22.0972 46.0137 22.0972 44.9865C22.0972 43.1652 22.0916 41.3383 22.1028 39.5171C22.1028 39.2004 22.0245 39.1005 21.7055 39.1171C21.1573 39.1449 20.609 39.1394 20.0606 39.1171C19.7865 39.1062 19.6858 39.1672 19.6523 39.467C19.4732 40.9996 19.3837 42.5488 18.9025 44.0315C18.7628 44.47 18.5781 44.8977 18.3095 45.2752C17.9067 45.8472 17.336 46.0804 16.6479 46.0692C16.3905 46.0638 16.2226 45.9971 16.2562 45.6806C16.2898 45.3808 16.2842 45.0753 16.2898 44.7755C16.2954 44.6644 16.2786 44.5644 16.452 44.5533C17.0003 44.5089 17.2353 44.0925 17.4087 43.6538C17.8003 42.6654 17.929 41.6215 18.0354 40.5775C18.1193 39.7224 18.1753 38.8617 18.2313 38.0011C18.248 37.7678 18.343 37.7068 18.5613 37.7123C20.1278 37.7179 21.6888 37.7234 23.2554 37.7068C23.5407 37.7068 23.5575 37.8234 23.5575 38.0455C23.5407 39.3338 23.5463 40.611 23.5463 41.8881Z" fill="black"/>
<path d="M84.4248 41.9098C84.4248 43.1425 84.408 44.3696 84.436 45.6024C84.4415 45.9523 84.3351 46.0189 84.0051 46.0133C82.9701 45.9967 82.9701 46.0133 82.9701 44.9638C82.9701 43.1592 82.9646 41.3491 82.9756 39.5444C82.9813 39.2167 82.9029 39.1001 82.556 39.1167C82.0246 39.1445 81.4931 39.139 80.9616 39.1224C80.6818 39.1112 80.5586 39.1556 80.5196 39.4944C80.3462 41.0103 80.2565 42.5429 79.781 44.0143C79.6523 44.4085 79.4901 44.7862 79.2775 45.1416C79.0816 45.4637 78.83 45.7357 78.483 45.8856C78.0634 46.0633 77.5095 46.2853 77.2131 45.9634C76.9388 45.6745 77.1851 45.1081 77.1739 44.664C77.1739 44.5863 77.2354 44.5697 77.3025 44.564C77.9235 44.5085 78.1474 44.0365 78.3263 43.5535C78.6788 42.6205 78.802 41.6377 78.9082 40.6604C78.9977 39.7887 79.0537 38.9113 79.1041 38.034C79.1208 37.7785 79.216 37.7119 79.4565 37.7175C81.0063 37.723 82.5505 37.7287 84.1002 37.7119C84.3968 37.7064 84.436 37.8229 84.4303 38.0729C84.4191 39.3555 84.4248 40.6327 84.4248 41.9098Z" fill="black"/>
<path d="M25.9644 41.8382C25.9644 40.5888 25.9701 39.3449 25.9588 38.0956C25.9533 37.8346 26.0203 37.7513 26.3002 37.7458C27.4471 37.7347 27.4471 37.7235 27.4471 38.873C27.4471 39.2894 27.475 39.706 27.4358 40.1169C27.4023 40.511 27.559 40.5499 27.9003 40.5221C28.4598 40.4777 29.0192 40.4777 29.5787 40.6221C30.7703 40.9275 31.4977 41.6827 31.5704 42.721C31.6768 44.2425 31.1453 45.2143 29.9312 45.714C29.2766 45.9861 28.594 46.025 27.8946 46.0083C27.3631 45.9915 26.8316 45.9916 26.3002 46.0138C26.026 46.025 25.9476 45.9472 25.9533 45.6751C25.9701 44.3925 25.9644 43.1153 25.9644 41.8382ZM27.4471 43.2542C27.4471 43.6039 27.4471 43.9538 27.4471 44.3037C27.4471 44.4314 27.4303 44.5646 27.6205 44.5812C28.1017 44.6201 28.5827 44.6534 29.0472 44.509C29.7018 44.3092 30.0542 43.7928 30.0095 43.1431C29.9647 42.5045 29.5732 42.077 28.8905 41.9659C28.6052 41.9215 28.3143 41.9215 28.029 41.9049C27.5757 41.8771 27.3464 42.0381 27.4358 42.5323C27.4806 42.7711 27.4471 43.0154 27.4471 43.2542Z" fill="black"/>
<path d="M52.3888 41.8488C52.3888 40.5994 52.4001 39.3557 52.3831 38.1064C52.3776 37.7899 52.4671 37.7121 52.7804 37.7121C54.1512 37.7287 55.5219 37.7287 56.8927 37.7121C57.1891 37.7066 57.273 37.7788 57.273 38.0786C57.273 39.1224 57.2898 39.1224 56.2268 39.1224C55.5667 39.1224 54.9065 39.1336 54.2463 39.1169C53.989 39.1114 53.8603 39.1613 53.8714 39.4557C53.8938 39.8998 53.8938 40.3497 53.8714 40.7995C53.8603 41.0659 53.9665 41.116 54.2071 41.116C54.996 41.1048 55.7848 41.1214 56.5794 41.1048C56.8535 41.0993 56.9262 41.1826 56.9317 41.449C56.943 42.4819 56.9542 42.4819 55.9135 42.4819C55.3653 42.4819 54.817 42.4931 54.2686 42.4764C53.989 42.4653 53.8546 42.5263 53.8714 42.8428C53.8993 43.3204 53.8938 43.8035 53.8714 44.2811C53.8603 44.5531 53.9498 44.6364 54.2294 44.6364C55.1471 44.6198 56.0702 44.6476 56.9877 44.6253C57.329 44.6198 57.4185 44.7197 57.4185 45.0528C57.4074 46.0078 57.4185 46.0078 56.473 46.0078C55.2813 46.0078 54.084 45.9801 52.8923 46.019C52.4391 46.0356 52.3776 45.8858 52.3831 45.4915C52.4056 44.2754 52.3888 43.0594 52.3888 41.8488Z" fill="black"/>
<path d="M71.0704 41.8376C71.0704 40.6049 71.0816 39.3778 71.0648 38.1451C71.0591 37.8286 71.1151 37.7064 71.4732 37.7119C72.8272 37.7341 74.1812 37.7341 75.535 37.7119C75.8875 37.7064 75.9547 37.8229 75.949 38.1451C75.938 39.1279 75.949 39.1279 74.9365 39.1279C74.2594 39.1279 73.5825 39.139 72.9056 39.1224C72.637 39.1167 72.5306 39.1945 72.5475 39.4721C72.5753 39.9941 72.3739 40.6827 72.637 41.0047C72.9111 41.3434 73.6328 41.0713 74.1532 41.1103C74.3154 41.1214 74.4776 41.1103 74.6342 41.1103C75.6134 41.1103 75.5967 41.1103 75.6022 42.0876C75.6022 42.3985 75.5295 42.504 75.1994 42.4928C74.4441 42.4707 73.6832 42.4985 72.9279 42.4762C72.6313 42.4707 72.5306 42.554 72.5475 42.8539C72.5698 43.3147 72.5753 43.7811 72.5475 44.2419C72.5251 44.5752 72.665 44.6362 72.9671 44.6307C73.8511 44.6141 74.7406 44.6419 75.6247 44.6196C75.9715 44.6084 76.1002 44.6806 76.0945 45.0583C76.0722 46.0021 76.0946 46.0021 75.1379 46.0021C73.9126 46.0021 72.6873 45.9912 71.4621 46.0078C71.1488 46.0133 71.0591 45.93 71.0648 45.619C71.0816 44.3587 71.0704 43.0981 71.0704 41.8376Z" fill="black"/>
<path d="M22.9322 30.9324C22.9322 31.4433 22.9435 31.9541 22.9267 32.465C22.921 32.7371 22.9658 32.9037 23.2903 32.8593C23.4974 32.826 23.5757 32.926 23.5701 33.1313C23.5589 33.4812 23.5477 33.8366 23.5701 34.1863C23.5981 34.564 23.3463 34.4807 23.1281 34.4973C22.8763 34.5196 22.7141 34.4585 22.7644 34.1642C22.8428 33.7255 22.6637 33.5978 22.2216 33.6199C21.4496 33.6588 20.6719 33.6422 19.8998 33.6256C19.5865 33.6144 19.4411 33.7032 19.497 34.0253C19.5753 34.4529 19.3571 34.5362 18.9823 34.5029C18.7754 34.4861 18.697 34.414 18.7082 34.2141C18.7194 33.9587 18.7137 33.7032 18.7082 33.4478C18.7025 33.1368 18.6187 32.7926 19.1557 32.837C19.3516 32.8536 19.3851 32.5927 19.4523 32.4372C19.7936 31.5988 19.9223 30.7103 19.9558 29.8164C19.9893 28.9224 19.9838 28.9224 20.8621 28.9224C21.4273 28.9224 21.9923 28.9391 22.5574 28.9168C22.8651 28.9056 22.9435 29.0167 22.9379 29.2999C22.9155 29.844 22.9322 30.3883 22.9322 30.9324ZM20.1907 32.8536C20.7279 32.8536 21.2091 32.837 21.6902 32.8593C21.998 32.8759 22.1099 32.7926 22.0987 32.4705C22.0707 31.8043 22.093 31.1323 22.093 30.4605C22.093 29.6887 22.093 29.7163 21.3041 29.6831C20.9125 29.6664 20.7671 29.783 20.7559 30.1773C20.7334 31.0768 20.5768 31.9487 20.1907 32.8536Z" fill="black"/>
<path d="M5.15689 31.2657C5.1457 32.2096 4.53027 32.8593 3.45605 33.0203C3.15393 33.0648 2.93015 33.0815 2.9805 33.4756C3.02525 33.831 2.72313 33.7144 2.5385 33.72C2.36507 33.7255 2.09651 33.8034 2.15246 33.4756C2.2196 33.0815 2.00141 33.0648 1.69368 33.0203C0.373303 32.8149 -0.298078 31.7654 0.127129 30.5937C0.406871 29.8164 1.05028 29.5332 1.80559 29.4222C2.01258 29.3944 2.19721 29.3944 2.15246 29.1057C2.10211 28.8057 2.30912 28.8002 2.51052 28.828C2.70075 28.8503 3.01965 28.7003 2.98609 29.0946C2.95811 29.411 3.16512 29.3944 3.37773 29.4333C4.55264 29.6275 5.17367 30.2661 5.15689 31.2657ZM2.9693 31.2213C2.9693 31.4767 2.98049 31.7322 2.96371 31.9819C2.94693 32.243 3.05323 32.3095 3.305 32.2818C3.82532 32.2262 4.18339 31.9209 4.26731 31.4323C4.35682 30.9158 4.11625 30.466 3.64627 30.2718C3.10358 30.0441 2.9693 30.1218 2.9693 30.6936C2.9693 30.8714 2.9693 31.0435 2.9693 31.2213ZM2.15246 31.2379C2.15246 30.9659 2.14127 30.6993 2.15805 30.4272C2.16925 30.2162 2.09092 30.1495 1.87831 30.1718C1.38037 30.2162 0.97195 30.5827 0.910405 31.0768C0.843268 31.6044 1.09504 32.032 1.58179 32.2096C2.07413 32.3874 2.15805 32.3373 2.15805 31.8098C2.15246 31.6211 2.15246 31.4267 2.15246 31.2379Z" fill="black"/>
<path d="M9.05045 33.7253C7.60696 33.7198 6.5999 32.7036 6.60549 31.2655C6.61109 29.8495 7.64614 28.8223 9.07841 28.8223C10.5443 28.8223 11.5625 29.844 11.5513 31.3044C11.5345 32.7147 10.4827 33.731 9.05045 33.7253ZM10.6673 31.2543C10.6562 30.2882 9.96799 29.5886 9.03925 29.5997C8.13848 29.6107 7.48388 30.3159 7.47828 31.271C7.47828 32.2205 8.18324 32.9535 9.0896 32.948C10.0239 32.948 10.6785 32.2483 10.6673 31.2543Z" fill="black"/>
<path d="M17.1024 31.2766C17.1024 31.9485 17.0856 32.6205 17.108 33.2923C17.1192 33.631 16.9402 33.6365 16.6884 33.6365C16.4478 33.6365 16.2464 33.6531 16.2744 33.2978C16.3079 32.8536 16.2632 32.4038 16.2856 31.9541C16.2968 31.6764 16.1961 31.5987 15.9275 31.6099C15.4296 31.6265 14.926 31.6265 14.4281 31.6099C14.1763 31.6042 14.0868 31.6821 14.0924 31.9318C14.1092 32.3928 14.0812 32.8593 14.1036 33.3201C14.1204 33.6977 13.8686 33.6087 13.656 33.6255C13.4154 33.6422 13.27 33.6144 13.2755 33.3034C13.2923 31.943 13.2923 30.5882 13.2755 29.2277C13.27 28.9111 13.4266 28.8945 13.6616 28.9111C13.8798 28.9222 14.1315 28.8446 14.1092 29.2221C14.0868 29.6386 14.1148 30.055 14.098 30.4659C14.0868 30.7159 14.1371 30.8491 14.4393 30.8379C14.954 30.8158 15.4687 30.8213 15.989 30.8379C16.2184 30.8436 16.3024 30.7658 16.2912 30.5381C16.2744 30.1051 16.3135 29.6719 16.28 29.2443C16.252 28.8833 16.4646 28.9167 16.6996 28.9111C16.957 28.9056 17.1248 28.9222 17.1136 29.261C17.0856 29.9328 17.1024 30.6048 17.1024 31.2766Z" fill="black"/>
</g>
<defs>
<clipPath id="clip0_2223_2986">
<rect width="95" height="48" fill="white"/>
</clipPath>
</defs>
</svg>
