<svg width="24" height="22" viewBox="0 0 24 22" fill="none" xmlns="http://www.w3.org/2000/svg">
<path d="M0.423911 10.5899L5.954 12.5654L8.09448 19.154C8.23144 19.576 8.77056 19.732 9.1284 19.4519L12.211 17.0467C12.5341 16.7948 12.9943 16.7822 13.332 17.0168L18.8919 20.8803C19.2747 21.1466 19.817 20.9458 19.913 20.5031L23.9859 1.75187C24.0907 1.26826 23.5942 0.864813 23.1131 1.04291L0.417431 9.42278C-0.142649 9.62951 -0.137769 10.3885 0.423911 10.5899ZM7.74952 11.5138L18.5574 5.14268C18.7516 5.02852 18.9515 5.2799 18.7847 5.42798L9.86504 13.3637C9.55152 13.643 9.34928 14.0168 9.292 14.4225L8.98816 16.5777C8.94792 16.8654 8.5256 16.894 8.44264 16.6155L7.27408 12.6856C7.14024 12.2373 7.33528 11.7585 7.74952 11.5138Z" fill="white"/>
</svg>
