<svg width="20" height="14" viewBox="0 0 20 14" fill="none" xmlns="http://www.w3.org/2000/svg">
<path d="M10.8891 13.9231C4.05594 13.9231 0.15984 8.73491 0 0.0879903H3.43656C3.54645 6.42906 6.06394 9.11182 8.06194 9.66611V0.0879903H11.2887V5.55329C13.2567 5.32048 15.3347 2.82618 16.034 0.0769043H19.2507C18.9885 1.50006 18.4645 2.84791 17.7116 4.03623C16.9588 5.22455 15.9932 6.22782 14.8751 6.98335C16.1228 7.67247 17.2247 8.64728 18.1081 9.84348C18.9914 11.0397 19.6363 12.4301 20 13.9231H16.4535C15.6943 11.2957 13.7962 9.25594 11.2887 8.9788V13.9231H10.8991H10.8891Z" fill="white"/>
</svg>
